<?xml version="1.0" encoding="utf-8"?>
<!-- Generator: Adobe Illustrator 21.0.2, SVG Export Plug-In . SVG Version: 6.00 Build 0)  -->
<svg version="1.1" id="Layer_1" xmlns="http://www.w3.org/2000/svg" xmlns:xlink="http://www.w3.org/1999/xlink" x="0px" y="0px"
	 viewBox="0 0 164 164" style="enable-background:new 0 0 164 164;" xml:space="preserve">
<style type="text/css">
	.st0{fill:none;stroke:#FFFFFF;stroke-width:2;stroke-miterlimit:10;}
	.st1{fill:#FFFFFF;}
</style>
<circle class="st0" cx="82" cy="82" r="81"/>
<g>
	<path class="st1" d="M86.3,125.1h-8.6c-0.5,0-1-0.4-1-1v-14.2H61.2c0,0,0,0,0,0H38.4c-0.4,0-0.7-0.2-0.9-0.6
		c-0.2-0.4-0.1-0.8,0.2-1.1l17.9-18.1c0,0,0,0,0,0l5.8-5.9c0.2-0.2,0.4-0.3,0.7-0.3h9.4c0,0,0,0,0,0h21.1c0,0,0,0,0,0h9.4
		c0.3,0,0.5,0.1,0.7,0.3l5.8,5.9c0,0,0,0,0,0l17.9,18.1c0.3,0.3,0.4,0.7,0.2,1.1c-0.2,0.4-0.5,0.6-0.9,0.6h-22.8c0,0,0,0,0,0H87.3
		v14.2C87.3,124.6,86.8,125.1,86.3,125.1L86.3,125.1z M78.7,123.1h6.7v-13.2h-6.7V123.1z M103.4,107.9h19.9l-7.8-7.9h-15.5
		L103.4,107.9z M83,107.9h18.3l-3.3-7.9H83V107.9z M62.7,107.9H81v-7.9H66L62.7,107.9z M40.7,107.9h19.9l3.3-7.9H48.5L40.7,107.9z
		 M99.2,98.1h14.4l-6.3-6.4H96.5L99.2,98.1z M83,98.1h14.2l-2.7-6.4H83V98.1z M66.9,98.1H81v-6.4H69.6L66.9,98.1z M50.4,98.1h14.4
		l2.7-6.4H56.7L50.4,98.1z M95.7,89.8h9.7l-3.9-3.9H94L95.7,89.8z M83,89.8h10.6l-1.7-3.9h-9V89.8z M70.4,89.8H81v-3.9h-9L70.4,89.8
		z M58.6,89.8h9.7l1.7-3.9h-7.5L58.6,89.8z M82,75.2c-0.5,0-1-0.4-1-1v-5c0-0.5,0.4-1,1-1c0.5,0,1,0.4,1,1v5
		C83,74.8,82.5,75.2,82,75.2L82,75.2z M94.1,70.2c-0.2,0-0.5-0.1-0.7-0.3l-3.6-3.6c-0.4-0.4-0.4-1,0-1.4c0.4-0.4,1-0.4,1.4,0
		l3.6,3.6c0.4,0.4,0.4,1,0,1.4C94.6,70.1,94.4,70.2,94.1,70.2L94.1,70.2z M69.9,70.2c-0.2,0-0.5-0.1-0.7-0.3c-0.4-0.4-0.4-1,0-1.4
		l3.6-3.6c0.4-0.4,1-0.4,1.4,0c0.4,0.4,0.4,1,0,1.4l-3.6,3.6C70.4,70.1,70.1,70.2,69.9,70.2L69.9,70.2z M82,66.1c-4.9,0-9-4-9-9
		c0-4.9,4-9,9-9c4.9,0,8.9,4,8.9,9C91,62.1,86.9,66.1,82,66.1L82,66.1z M82,50.1c-3.9,0-7,3.1-7,7s3.1,7,7,7c3.9,0,7-3.1,7-7
		S85.9,50.1,82,50.1L82,50.1z M99.2,58.1h-5c-0.5,0-1-0.4-1-1c0-0.5,0.4-1,1-1h5c0.5,0,1,0.4,1,1C100.1,57.6,99.7,58.1,99.2,58.1
		L99.2,58.1z M69.9,58.1h-5c-0.5,0-1-0.4-1-1c0-0.5,0.4-1,1-1h5c0.5,0,1,0.4,1,1C70.8,57.6,70.4,58.1,69.9,58.1L69.9,58.1z
		 M90.6,49.5c-0.2,0-0.5-0.1-0.7-0.3c-0.4-0.4-0.4-1,0-1.4l3.6-3.6c0.4-0.4,1-0.4,1.4,0c0.4,0.4,0.4,1,0,1.4l-3.5,3.6
		C91.1,49.4,90.8,49.5,90.6,49.5L90.6,49.5z M73.4,49.5c-0.2,0-0.5-0.1-0.7-0.3l-3.6-3.6c-0.4-0.4-0.4-1,0-1.4c0.4-0.4,1-0.4,1.4,0
		l3.6,3.6c0.4,0.4,0.4,1,0,1.4C73.9,49.4,73.7,49.5,73.4,49.5L73.4,49.5z M82,45.9c-0.5,0-1-0.4-1-1v-5c0-0.5,0.4-1,1-1
		c0.5,0,1,0.4,1,1v5C83,45.5,82.5,45.9,82,45.9L82,45.9z M82,45.9"/>
</g>
</svg>
