<?xml version="1.0" encoding="utf-8"?>
<!-- Generator: Adobe Illustrator 21.0.2, SVG Export Plug-In . SVG Version: 6.00 Build 0)  -->
<svg version="1.1" id="Layer_1" xmlns="http://www.w3.org/2000/svg" xmlns:xlink="http://www.w3.org/1999/xlink" x="0px" y="0px"
	 viewBox="0 0 164 164" style="enable-background:new 0 0 164 164;" xml:space="preserve">
<style type="text/css">
	.st0{fill:none;stroke:#FFFFFF;stroke-width:2;stroke-miterlimit:10;}
</style>
<circle class="st0" cx="82" cy="82" r="81"/>
<g>
	<path class="st0" d="M32.9,87.7c-1.4,0-2.5-1.2-2.5-2.8V80c0-1.5,1.1-2.8,2.5-2.8h2.5v10.4H32.9z"/>
	<path class="st0" d="M42.2,101.7c-1.5,0-2.8-1.2-2.8-2.8V67.2c0-1.5,1.2-2.8,2.8-2.8h4.5v37.2H42.2z"/>
	<path class="st0" d="M61.1,108.1c0,1.5-1.2,2.8-2.8,2.8h-5c-1.5,0-2.8-1.2-2.8-2.8V55.9c0-1.5,1.2-2.8,2.8-2.8h5
		c1.5,0,2.8,1.2,2.8,2.8V108.1z"/>
	<rect x="65" y="76.3" class="st0" width="34" height="10.5"/>
	<path class="st0" d="M113.4,108.1c0,1.5-1.2,2.8-2.8,2.8h-5c-1.5,0-2.8-1.2-2.8-2.8V55.9c0-1.5,1.2-2.8,2.8-2.8h5
		c1.5,0,2.8,1.2,2.8,2.8V108.1z"/>
	<path class="st0" d="M124.6,96.8c0,1.5-1.2,2.8-2.8,2.8h-4.5V62.3h4.5c1.5,0,2.8,1.2,2.8,2.8V96.8z"/>
	<path class="st0" d="M133.6,84c0,1.5-1.1,2.8-2.5,2.8h-2.5V76.3h2.5c1.4,0,2.5,1.2,2.5,2.8V84z"/>
	<path class="st0" d="M133.6,84"/>
</g>
</svg>
