<?xml version="1.0" encoding="utf-8"?>
<!-- Generator: Adobe Illustrator 21.0.2, SVG Export Plug-In . SVG Version: 6.00 Build 0)  -->
<svg version="1.1" id="Layer_1" xmlns="http://www.w3.org/2000/svg" xmlns:xlink="http://www.w3.org/1999/xlink" x="0px" y="0px"
	 viewBox="0 0 164 164" style="enable-background:new 0 0 164 164;" xml:space="preserve">
<style type="text/css">
	.st0{fill:none;stroke:#FFFFFF;stroke-width:2;stroke-miterlimit:10;}
</style>
<circle class="st0" cx="82" cy="82" r="81"/>
<path class="st0" d="M104.7,36.6c0,0-7.5,7.2-15.5,10.2c-59.8,21.6-34.6,63.8-33.7,63.9c0,0,3.4-5.8,7.9-9.2
	C92,80.4,97.9,56.1,97.9,56.1s-6.5,29.3-32,47.5c-5.6,4-9.5,13.9-11.1,23.8c0,0,4-1.6,5.7-2.1c0.7-4.4,2.1-8.6,4.4-12.3
	c35.7,4.3,47.4-24.5,49-34.6C117.5,54.7,104.7,36.6,104.7,36.6L104.7,36.6z M104.7,36.6"/>
</svg>
