<?xml version="1.0" encoding="utf-8"?>
<!-- Generator: Adobe Illustrator 21.0.2, SVG Export Plug-In . SVG Version: 6.00 Build 0)  -->
<svg version="1.1" id="Layer_1" xmlns="http://www.w3.org/2000/svg" xmlns:xlink="http://www.w3.org/1999/xlink" x="0px" y="0px"
	 viewBox="0 0 164 164" style="enable-background:new 0 0 164 164;" xml:space="preserve">
<style type="text/css">
	.st0{fill:none;stroke:#FFFFFF;stroke-width:2;stroke-miterlimit:10;}
	.st1{fill:#FFFFFF;}
</style>
<circle class="st0" cx="82" cy="82" r="81"/>
<g>
	<path class="st1" d="M103.6,47.7H54.4c-2,0-3.6,1.6-3.6,3.6v61.5c0,2,1.6,3.6,3.6,3.6h49.2c2,0,3.6-1.6,3.6-3.6V51.3
		C107.2,49.3,105.6,47.7,103.6,47.7L103.6,47.7z M104.9,112.7c0,0.7-0.6,1.3-1.3,1.3H80.2V66c0-0.6-0.5-1.2-1.2-1.2
		c-0.6,0-1.2,0.5-1.2,1.2v48H54.4c-0.7,0-1.3-0.6-1.3-1.3V51.3c0-0.7,0.6-1.3,1.3-1.3h23.4v3.8c0,0.6,0.5,1.2,1.2,1.2
		c0.6,0,1.2-0.5,1.2-1.2V50h23.4c0.7,0,1.3,0.6,1.3,1.3V112.7z M104.9,112.7"/>
	<path class="st1" d="M79,57.5c-0.6,0-1.2,0.5-1.2,1.2v2.5c0,0.6,0.5,1.2,1.2,1.2c0.6,0,1.2-0.5,1.2-1.2v-2.5
		C80.2,58,79.6,57.5,79,57.5L79,57.5z M79,57.5"/>
	<path class="st1" d="M127.4,97.2l-5.4,5.4V61.4l5.4,5.4c0.2,0.2,0.5,0.3,0.8,0.3c0.3,0,0.6-0.1,0.8-0.3c0.5-0.5,0.5-1.2,0-1.6
		l-7.4-7.4c0,0-0.1-0.1-0.1-0.1c0,0,0,0,0,0c0,0,0,0-0.1,0c0,0,0,0,0,0c0,0,0,0,0,0c0,0,0,0-0.1,0c0,0,0,0-0.1,0c0,0,0,0-0.1,0
		c0,0,0,0-0.1,0c0,0,0,0-0.1,0c0,0,0,0-0.1,0c0,0,0,0-0.1,0c0,0,0,0-0.1,0c0,0-0.1,0-0.1,0c0,0,0,0,0,0c0,0,0,0,0,0c0,0-0.1,0-0.1,0
		c0,0,0,0-0.1,0c0,0,0,0-0.1,0c0,0,0,0-0.1,0c0,0,0,0,0,0c0,0,0,0-0.1,0c0,0,0,0,0,0c0,0,0,0-0.1,0c0,0,0,0-0.1,0c0,0,0,0,0,0
		c0,0,0,0,0,0c0,0,0,0-0.1,0c0,0,0,0,0,0c0,0-0.1,0-0.1,0.1l-7.4,7.4c-0.5,0.4-0.5,1.2,0,1.6c0.2,0.2,0.5,0.3,0.8,0.3
		s0.6-0.1,0.8-0.3l5.4-5.4v41.1l-5.4-5.4c-0.5-0.5-1.2-0.5-1.6,0c-0.5,0.5-0.5,1.2,0,1.6l7.4,7.4c0,0,0.1,0.1,0.1,0.1c0,0,0,0,0,0
		c0,0,0,0,0.1,0c0,0,0,0,0,0c0,0,0,0,0,0c0,0,0,0,0.1,0c0,0,0,0,0.1,0c0,0,0,0,0.1,0c0,0,0,0,0.1,0c0,0,0,0,0.1,0c0,0,0,0,0.1,0
		c0,0,0,0,0.1,0c0,0,0,0,0.1,0c0,0,0.1,0,0.1,0c0,0,0.1,0,0.1,0c0,0,0,0,0.1,0c0,0,0,0,0.1,0c0,0,0,0,0.1,0c0,0,0,0,0.1,0
		c0,0,0,0,0.1,0c0,0,0,0,0.1,0c0,0,0,0,0.1,0c0,0,0,0,0.1,0c0,0,0,0,0,0c0,0,0,0,0,0c0,0,0,0,0.1,0c0,0,0,0,0,0c0,0,0.1,0,0.1-0.1
		l7.4-7.4c0.5-0.5,0.5-1.2,0-1.6C128.5,96.7,127.8,96.7,127.4,97.2L127.4,97.2z M127.4,97.2"/>
</g>
</svg>
