<?xml version="1.0" encoding="utf-8"?>
<!-- Generator: Adobe Illustrator 21.0.2, SVG Export Plug-In . SVG Version: 6.00 Build 0)  -->
<svg version="1.1" id="Layer_1" xmlns="http://www.w3.org/2000/svg" xmlns:xlink="http://www.w3.org/1999/xlink" x="0px" y="0px"
	 viewBox="0 0 164 164" style="enable-background:new 0 0 164 164;" xml:space="preserve">
<style type="text/css">
	.st0{fill:none;stroke:#FFFFFF;stroke-width:2;stroke-miterlimit:10;}
</style>
<circle class="st0" cx="82" cy="82" r="81"/>
<g>
	<path class="st0" d="M101.8,75.7c-0.3,0-0.6,0-0.9,0.1l-3.5,1l-3.7-8.9c-1-2.5-4.1-4.6-6.8-4.6H52.5c-2.7,0-5.8,2.1-6.8,4.6
		L42,76.8l-3.5-1c-0.3-0.1-0.6-0.1-0.9-0.1c-1.7,0-2.9,1.3-2.9,3v2.1c0,2,1.7,3.7,3.7,3.7h0.4L38.3,86c-1,2.3-1.7,6.3-1.7,8.9v17.7
		c0,2,1.7,3.7,3.7,3.7h4.9c2,0,3.7-1.7,3.7-3.7v-4.4h41.7v4.4c0,2,1.7,3.7,3.7,3.7h4.9c2,0,3.7-1.7,3.7-3.7V94.8
		c0-2.5-0.8-6.5-1.7-8.9l-0.6-1.4h0.4c2,0,3.7-1.7,3.7-3.7v-2.1C104.6,77,103.4,75.7,101.8,75.7L101.8,75.7z M44.7,82.5L50.2,69
		c0.6-1.5,2.5-2.8,4.1-2.8H85c1.6,0,3.5,1.2,4.1,2.8l5.5,13.5c0.6,1.5-0.2,2.8-1.8,2.8H46.5C44.9,85.2,44.1,84,44.7,82.5L44.7,82.5z
		 M57.1,99.6c0,0.8-0.7,1.5-1.5,1.5H45c-0.8,0-1.5-0.7-1.5-1.5v-5.1c0-0.8,0.7-1.5,1.5-1.5h10.5c0.8,0,1.5,0.7,1.5,1.5V99.6z
		 M95.7,99.6c0,0.8-0.7,1.5-1.5,1.5H83.7c-0.8,0-1.5-0.7-1.5-1.5v-5.1c0-0.8,0.7-1.5,1.5-1.5h10.5c0.8,0,1.5,0.7,1.5,1.5V99.6z
		 M95.7,99.6"/>
	<path class="st0" d="M124.6,47.7H107c-2.6,0-4.6,2.1-4.6,4.6V70c0,2.6,2.1,4.6,4.6,4.6h7.1v39.5c0,1,0.8,1.7,1.7,1.7
		c1,0,1.7-0.8,1.7-1.7V74.6h7.1c2.6,0,4.6-2.1,4.6-4.6V52.4C129.3,49.8,127.2,47.7,124.6,47.7L124.6,47.7z M120.6,62.3
		c-1,0.9-2.5,1.4-4.4,1.4h-2.5c-0.3,0-0.6,0.2-0.6,0.6v4.3c0,0.5-0.4,0.8-0.8,0.8h-1.9c-0.5,0-0.8-0.4-0.8-0.8V53.8
		c0-0.5,0.4-0.8,0.8-0.8h4.9c3.2,0,4.4,0.5,5.4,1.3c1,0.9,1.6,2.2,1.6,4C122.2,60.1,121.6,61.4,120.6,62.3L120.6,62.3z M120.6,62.3"
		/>
	<path class="st0" d="M117.9,56.5c-0.5-0.4-1.3-0.5-2.5-0.5h-1.7c-0.3,0-0.6,0.2-0.6,0.6v3.5c0,0.3,0.2,0.6,0.6,0.6h1
		c0.4,0,1,0,1.4-0.1c0.4,0,1.4-0.2,1.8-0.5c0.5-0.3,0.7-0.9,0.7-1.8C118.6,57.5,118.3,56.9,117.9,56.5L117.9,56.5z M117.9,56.5"/>
</g>
</svg>
