<?xml version="1.0" encoding="utf-8"?>
<!-- Generator: Adobe Illustrator 21.0.2, SVG Export Plug-In . SVG Version: 6.00 Build 0)  -->
<svg version="1.1" id="Layer_1" xmlns="http://www.w3.org/2000/svg" xmlns:xlink="http://www.w3.org/1999/xlink" x="0px" y="0px"
	 viewBox="0 0 164 164" style="enable-background:new 0 0 164 164;" xml:space="preserve">
<style type="text/css">
	.st0{fill:none;stroke:#FFFFFF;stroke-width:2;stroke-miterlimit:10;}
	.st1{fill:#FFFFFF;}
</style>
<circle class="st0" cx="82" cy="82" r="81"/>
<g>
	<path class="st1" d="M125.3,115.4h-13c-0.5,0-0.9-0.4-0.9-0.9c0-0.5,0.4-0.9,0.9-0.9h1.5l0.9-45.6c-1.2,1.7-2.9,3.9-5.4,6
		c-4.8,4.2-13.5,9.2-27.4,9.2c-13.9,0-22.5-5-27.2-9.2c-2.4-2.1-4.1-4.3-5.2-5.9l0.9,45.5h1.5c0.5,0,0.9,0.4,0.9,0.9
		c0,0.5-0.4,0.9-0.9,0.9h-13c-0.5,0-0.9-0.4-0.9-0.9c0-0.5,0.4-0.9,0.9-0.9h1.5l0.9-49.2c0-0.5,0.4-0.9,0.9-0.9h0.1v-2.2
		c-2.2-1.1-3.6-3.4-3.6-5.9c0-3.7,3-6.7,6.7-6.7c3.7,0,6.7,3,6.7,6.7c0,2.6-1.5,4.8-3.6,5.9v2.2h0.1c0.1,0,0.1,0,0.2,0
		c0.1,0,0.3,0.1,0.4,0.1c0.1,0.1,0.2,0.2,0.3,0.3c0,0,0.1,0.1,0.1,0.1c0.1,0.3,1.9,4.5,6.7,8.7c4.5,4,12.7,8.7,25.9,8.7
		c25.1,0,32.7-16.8,33-17.3c0-0.1,0-0.1,0.1-0.1c0.1-0.1,0.2-0.2,0.3-0.3c0.1-0.1,0.2-0.1,0.4-0.1c0.1,0,0.1,0,0.2,0h0.1v-2.2
		c-2.2-1.1-3.6-3.4-3.6-5.9c0-3.7,3-6.7,6.7-6.7c3.7,0,6.7,3,6.7,6.7c0,2.6-1.5,4.8-3.6,5.9v2.2h0.1c0.5,0,0.9,0.4,0.9,0.9l0.9,49.2
		h1.5c0.5,0,0.9,0.4,0.9,0.9C126.2,115,125.8,115.4,125.3,115.4L125.3,115.4z M115.7,113.6h6.2L121,65.3h-4.4L115.7,113.6z
		 M42.1,113.6h6.2l-0.9-48.3H43L42.1,113.6z M117.6,63.4h2.3v-1.5h-2.3V63.4z M44,63.4h2.3v-1.5H44V63.4z M118.8,60.1
		c2.7,0,4.8-2.2,4.8-4.8c0-2.6-2.2-4.8-4.8-4.8c-2.6,0-4.8,2.2-4.8,4.8C114,57.9,116.1,60.1,118.8,60.1L118.8,60.1z M45.2,60.1
		c2.7,0,4.8-2.2,4.8-4.8c0-2.6-2.2-4.8-4.8-4.8c-2.7,0-4.8,2.2-4.8,4.8C40.4,57.9,42.6,60.1,45.2,60.1L45.2,60.1z M45.2,60.1"/>
</g>
</svg>
