<?xml version="1.0" encoding="utf-8"?>
<!-- Generator: Adobe Illustrator 19.1.1, SVG Export Plug-In . SVG Version: 6.00 Build 0)  -->
<svg version="1.1" id="Слой_1" xmlns="http://www.w3.org/2000/svg" xmlns:xlink="http://www.w3.org/1999/xlink" x="0px" y="0px"
	 viewBox="0 0 164 164" style="enable-background:new 0 0 164 164;" xml:space="preserve">
<style type="text/css">
	.st0{fill:none;stroke:#FFFFFF;stroke-width:2;stroke-miterlimit:10;}
	.st1{fill:#FFFFFF;}
</style>
<circle class="st0" cx="82" cy="82" r="81"/>
<g>
	<g>
		<path class="st1" d="M82,102.836c-0.036,0-0.072-0.017-0.094-0.049L53.458,62.16c-0.037-0.052-0.024-0.124,0.028-0.16
			c0.052-0.037,0.124-0.024,0.16,0.028l28.448,40.627c0.036,0.052,0.024,0.124-0.028,0.161C82.046,102.83,82.023,102.836,82,102.836
			z"/>
	</g>
	<g>
		<path class="st1" d="M82,102.836c-0.033,0-0.065-0.014-0.088-0.041L53.464,68.893c-0.041-0.049-0.035-0.121,0.014-0.162
			c0.049-0.041,0.121-0.035,0.162,0.014l28.447,33.902c0.041,0.049,0.035,0.121-0.014,0.162
			C82.053,102.827,82.026,102.836,82,102.836z"/>
	</g>
	<g>
		<path class="st1" d="M82,102.836c-0.029,0-0.059-0.011-0.081-0.034L53.471,74.355c-0.045-0.045-0.045-0.118,0-0.163
			s0.118-0.045,0.163,0l28.447,28.447c0.045,0.045,0.045,0.118,0,0.163C82.059,102.825,82.029,102.836,82,102.836z"/>
	</g>
	<g>
		<path class="st1" d="M82,102.836c-0.026,0-0.052-0.009-0.074-0.027l-28.447-23.87c-0.049-0.041-0.055-0.113-0.014-0.162
			c0.041-0.049,0.114-0.055,0.162-0.014l28.448,23.87c0.049,0.041,0.055,0.113,0.014,0.162
			C82.065,102.822,82.033,102.836,82,102.836z"/>
	</g>
	<g>
		<path class="st1" d="M82,102.836c-0.023,0-0.046-0.007-0.066-0.021l-28.447-19.92c-0.052-0.036-0.065-0.108-0.028-0.161
			c0.037-0.052,0.108-0.064,0.16-0.028l28.447,19.92c0.052,0.036,0.065,0.108,0.028,0.161C82.072,102.819,82.036,102.836,82,102.836
			z"/>
	</g>
	<g>
		<path class="st1" d="M82,102.836c-0.02,0-0.039-0.005-0.058-0.015L53.495,86.397c-0.055-0.032-0.074-0.103-0.042-0.157
			c0.032-0.055,0.103-0.073,0.157-0.042l28.447,16.424c0.055,0.032,0.074,0.103,0.042,0.157
			C82.078,102.816,82.04,102.836,82,102.836z"/>
	</g>
	<g>
		<path class="st1" d="M82,102.836c-0.016,0-0.033-0.004-0.049-0.011L53.504,89.56c-0.058-0.027-0.083-0.095-0.056-0.153
			c0.027-0.058,0.096-0.082,0.153-0.056l28.447,13.265c0.058,0.027,0.083,0.095,0.056,0.153
			C82.085,102.812,82.043,102.836,82,102.836z"/>
	</g>
	<g>
		<path class="st1" d="M82,102.836c-0.013,0-0.026-0.002-0.039-0.007L53.513,92.475c-0.06-0.022-0.091-0.088-0.069-0.148
			s0.088-0.09,0.148-0.069l28.448,10.355c0.059,0.022,0.09,0.088,0.069,0.148C82.091,102.808,82.047,102.836,82,102.836z"/>
	</g>
	<g>
		<path class="st1" d="M82,102.836c-0.01,0-0.02-0.001-0.03-0.004L53.523,95.21c-0.061-0.016-0.098-0.08-0.081-0.141
			c0.017-0.062,0.08-0.098,0.141-0.081l28.447,7.622c0.061,0.016,0.098,0.08,0.081,0.141C82.098,102.803,82.051,102.836,82,102.836z
			"/>
	</g>
	<g>
		<path class="st1" d="M82,102.836c-0.007,0-0.014,0-0.02-0.002l-28.447-5.016c-0.063-0.011-0.104-0.071-0.093-0.133
			c0.011-0.063,0.072-0.105,0.133-0.094l28.447,5.016c0.063,0.011,0.105,0.071,0.093,0.133
			C82.103,102.797,82.055,102.836,82,102.836z"/>
	</g>
	<g>
		<path class="st1" d="M82,102.836c-0.003,0-0.007,0-0.01,0l-28.447-2.489c-0.063-0.005-0.11-0.061-0.105-0.125
			c0.006-0.063,0.061-0.114,0.125-0.105l28.447,2.489c0.063,0.005,0.11,0.061,0.105,0.125C82.109,102.791,82.059,102.836,82,102.836
			z"/>
	</g>
	<g>
		<path class="st1" d="M82,102.836H53.553c-0.064,0-0.115-0.052-0.115-0.115s0.052-0.115,0.115-0.115H82
			c0.063,0,0.115,0.052,0.115,0.115S82.063,102.836,82,102.836z"/>
	</g>
	<g>
		<path class="st1" d="M110.447,102.836H82c-0.064,0-0.115-0.052-0.115-0.115s0.052-0.115,0.115-0.115h28.447
			c0.063,0,0.115,0.052,0.115,0.115S110.511,102.836,110.447,102.836z"/>
	</g>
	<g>
		<path class="st1" d="M82,102.836c-0.059,0-0.109-0.045-0.115-0.105c-0.006-0.063,0.041-0.119,0.105-0.125l28.448-2.489
			c0.062-0.007,0.119,0.041,0.125,0.105c0.005,0.063-0.041,0.119-0.105,0.125l-28.447,2.489
			C82.007,102.836,82.003,102.836,82,102.836z"/>
	</g>
	<g>
		<path class="st1" d="M82,102.836c-0.055,0-0.103-0.039-0.113-0.095c-0.011-0.063,0.031-0.122,0.093-0.133l28.448-5.016
			c0.065-0.014,0.122,0.031,0.133,0.094c0.011,0.063-0.031,0.122-0.094,0.133l-28.447,5.016
			C82.013,102.836,82.007,102.836,82,102.836z"/>
	</g>
	<g>
		<path class="st1" d="M82,102.836c-0.051,0-0.097-0.034-0.111-0.085c-0.016-0.061,0.02-0.125,0.081-0.141l28.448-7.622
			c0.061-0.016,0.125,0.02,0.141,0.081c0.017,0.061-0.02,0.125-0.081,0.141l-28.447,7.622C82.02,102.835,82.01,102.836,82,102.836z"
			/>
	</g>
	<g>
		<path class="st1" d="M82,102.836c-0.047,0-0.091-0.029-0.108-0.076c-0.022-0.06,0.009-0.126,0.069-0.148l28.447-10.355
			c0.06-0.021,0.126,0.009,0.148,0.069c0.022,0.06-0.009,0.126-0.069,0.148L82.04,102.83C82.026,102.834,82.013,102.836,82,102.836z
			"/>
	</g>
	<g>
		<path class="st1" d="M82,102.836c-0.043,0-0.085-0.025-0.104-0.067c-0.027-0.058-0.002-0.126,0.056-0.153l28.447-13.265
			c0.058-0.027,0.126-0.002,0.153,0.056c0.027,0.058,0.002,0.126-0.056,0.153l-28.447,13.265
			C82.033,102.833,82.016,102.836,82,102.836z"/>
	</g>
	<g>
		<path class="st1" d="M82,102.836c-0.04,0-0.079-0.021-0.1-0.058c-0.032-0.055-0.013-0.126,0.042-0.157l28.447-16.424
			c0.054-0.031,0.125-0.013,0.157,0.042c0.031,0.055,0.013,0.126-0.042,0.157l-28.447,16.424
			C82.04,102.831,82.02,102.836,82,102.836z"/>
	</g>
	<g>
		<path class="st1" d="M82,102.836c-0.036,0-0.072-0.017-0.094-0.049c-0.037-0.052-0.024-0.124,0.028-0.161l28.447-19.92
			c0.052-0.036,0.124-0.024,0.161,0.028c0.036,0.052,0.024,0.124-0.028,0.161l-28.447,19.92
			C82.046,102.83,82.023,102.836,82,102.836z"/>
	</g>
	<g>
		<path class="st1" d="M82,102.836c-0.033,0-0.065-0.014-0.088-0.041c-0.041-0.049-0.035-0.121,0.014-0.162l28.447-23.87
			c0.049-0.041,0.121-0.035,0.162,0.014c0.041,0.049,0.035,0.121-0.014,0.162l-28.447,23.87
			C82.053,102.827,82.026,102.836,82,102.836z"/>
	</g>
	<g>
		<path class="st1" d="M82,102.836c-0.029,0-0.059-0.011-0.081-0.034c-0.045-0.045-0.045-0.118,0-0.163l28.447-28.447
			c0.045-0.045,0.118-0.045,0.163,0s0.045,0.118,0,0.163l-28.447,28.447C82.059,102.825,82.029,102.836,82,102.836z"/>
	</g>
	<g>
		<path class="st1" d="M82,102.836c-0.026,0-0.052-0.009-0.074-0.027c-0.049-0.041-0.055-0.113-0.014-0.162l28.447-33.902
			c0.041-0.049,0.114-0.055,0.162-0.014c0.049,0.041,0.055,0.114,0.014,0.162l-28.447,33.902
			C82.065,102.822,82.033,102.836,82,102.836z"/>
	</g>
	<g>
		<path class="st1" d="M82,102.836c-0.023,0-0.046-0.007-0.066-0.021c-0.052-0.036-0.065-0.108-0.028-0.161l28.447-40.627
			c0.036-0.052,0.108-0.065,0.161-0.028c0.052,0.036,0.065,0.108,0.028,0.16l-28.447,40.627
			C82.072,102.819,82.036,102.836,82,102.836z"/>
	</g>
	<g>
		<path class="st1" d="M82,102.836c-0.02,0-0.039-0.005-0.058-0.015c-0.055-0.032-0.074-0.103-0.042-0.157l28.447-49.272
			c0.032-0.056,0.103-0.074,0.157-0.042c0.055,0.032,0.074,0.102,0.042,0.157L82.1,102.779C82.078,102.816,82.04,102.836,82,102.836
			z"/>
	</g>
	<g>
		<path class="st1" d="M82,102.836c-0.013,0-0.026-0.002-0.039-0.007c-0.06-0.022-0.091-0.088-0.069-0.148l21.301-58.526
			c0.022-0.06,0.088-0.09,0.148-0.069c0.059,0.022,0.09,0.088,0.069,0.148l-21.301,58.526C82.091,102.808,82.047,102.836,82,102.836
			z"/>
	</g>
	<g>
		<path class="st1" d="M82,102.836c-0.01,0-0.02-0.001-0.03-0.004c-0.061-0.016-0.098-0.08-0.081-0.141l16.44-61.353
			c0.016-0.061,0.08-0.096,0.141-0.081c0.062,0.017,0.098,0.08,0.081,0.141l-16.44,61.353C82.098,102.803,82.051,102.836,82,102.836
			z"/>
	</g>
	<g>
		<path class="st1" d="M82,102.836c-0.007,0-0.014,0-0.02-0.002c-0.063-0.011-0.104-0.071-0.093-0.133l11.342-64.318
			c0.011-0.062,0.068-0.107,0.133-0.093c0.063,0.011,0.105,0.071,0.094,0.133l-11.342,64.317
			C82.103,102.797,82.055,102.836,82,102.836z"/>
	</g>
	<g>
		<path class="st1" d="M82,102.836c-0.003,0-0.007,0-0.01,0c-0.063-0.005-0.11-0.061-0.105-0.125l5.904-67.481
			c0.006-0.063,0.063-0.108,0.125-0.105c0.063,0.006,0.11,0.061,0.105,0.125l-5.904,67.48C82.109,102.791,82.059,102.836,82,102.836
			z"/>
	</g>
	<g>
		<path class="st1" d="M82,102.836c-0.064,0-0.115-0.052-0.115-0.115V31.808c0-0.064,0.052-0.115,0.115-0.115
			c0.063,0,0.115,0.052,0.115,0.115v70.913C82.115,102.785,82.063,102.836,82,102.836z"/>
	</g>
	<g>
		<path class="st1" d="M82,102.836c-0.055,0-0.103-0.039-0.113-0.095l-11.34-64.317c-0.011-0.063,0.031-0.122,0.093-0.133
			c0.062-0.012,0.122,0.031,0.133,0.093l11.34,64.318c0.011,0.063-0.031,0.122-0.093,0.133
			C82.013,102.836,82.007,102.836,82,102.836z"/>
	</g>
	<g>
		<path class="st1" d="M82,102.836c-0.051,0-0.097-0.034-0.111-0.085l-16.44-61.353c-0.016-0.062,0.02-0.125,0.081-0.141
			c0.062-0.015,0.125,0.02,0.141,0.081l16.44,61.353c0.017,0.061-0.02,0.125-0.081,0.141C82.02,102.835,82.01,102.836,82,102.836z"
			/>
	</g>
	<g>
		<path class="st1" d="M82,102.836c-0.047,0-0.091-0.029-0.108-0.076L60.59,44.235c-0.022-0.06,0.009-0.126,0.069-0.148
			c0.06-0.022,0.126,0.009,0.148,0.069l21.302,58.526c0.022,0.06-0.009,0.126-0.069,0.148C82.026,102.834,82.013,102.836,82,102.836
			z"/>
	</g>
	<g>
		<path class="st1" d="M82,102.836c-0.043,0-0.085-0.025-0.104-0.067L55.882,46.984c-0.027-0.058-0.002-0.126,0.056-0.153
			c0.058-0.027,0.126-0.002,0.153,0.056l26.013,55.786c0.027,0.058,0.002,0.126-0.056,0.153
			C82.033,102.833,82.016,102.836,82,102.836z"/>
	</g>
	<g>
		<path class="st1" d="M82,102.836c-0.059,0-0.109-0.045-0.115-0.105l-5.904-67.48c-0.006-0.063,0.041-0.119,0.105-0.125
			c0.066-0.006,0.119,0.041,0.125,0.105l5.904,67.481c0.005,0.063-0.041,0.119-0.105,0.125
			C82.007,102.836,82.003,102.836,82,102.836z"/>
	</g>
	<g>
		<path class="st1" d="M82,102.836c-0.04,0-0.079-0.021-0.1-0.058L53.453,53.506c-0.032-0.055-0.013-0.126,0.042-0.157
			c0.055-0.033,0.126-0.013,0.157,0.042L82.1,102.664c0.031,0.055,0.013,0.126-0.042,0.157C82.04,102.831,82.02,102.836,82,102.836z
			"/>
	</g>
	<g>
		<path class="st1" d="M82,102.836c-0.016,0-0.033-0.004-0.049-0.011c-0.058-0.027-0.083-0.095-0.056-0.153l26.013-55.786
			c0.027-0.058,0.096-0.082,0.153-0.056c0.058,0.027,0.083,0.095,0.056,0.153L82.104,102.77
			C82.085,102.812,82.043,102.836,82,102.836z"/>
	</g>
	<g>
		<path class="st1" d="M56.083,109.903h-2.646v-0.955h6.44v0.955h-2.659v7.744h-1.136V109.903z"/>
	</g>
	<g>
		<path class="st1" d="M71.282,113.569h-3.381v3.136h3.769v0.942h-4.891v-8.699h4.698v0.942h-3.575v2.749h3.381V113.569z"/>
	</g>
	<g>
		<path class="st1" d="M79.441,116.279c0.503,0.31,1.239,0.568,2.013,0.568c1.149,0,1.82-0.606,1.82-1.484
			c0-0.813-0.465-1.278-1.639-1.729c-1.42-0.503-2.297-1.239-2.297-2.465c0-1.355,1.123-2.362,2.814-2.362
			c0.891,0,1.536,0.206,1.923,0.426l-0.31,0.916c-0.284-0.155-0.865-0.413-1.652-0.413c-1.187,0-1.639,0.709-1.639,1.303
			c0,0.813,0.529,1.213,1.729,1.678c1.471,0.568,2.22,1.278,2.22,2.555c0,1.342-0.994,2.504-3.046,2.504
			c-0.839,0-1.755-0.245-2.22-0.555L79.441,116.279z"/>
	</g>
	<g>
		<path class="st1" d="M91.937,108.948h1.123v7.757h3.717v0.942h-4.84V108.948z"/>
	</g>
	<g>
		<path class="st1" d="M105.348,114.911l-0.903,2.736h-1.162l2.956-8.699h1.355l2.968,8.699h-1.2l-0.929-2.736H105.348z
			 M108.201,114.033l-0.852-2.504c-0.193-0.568-0.323-1.084-0.452-1.587h-0.026c-0.129,0.516-0.271,1.045-0.439,1.574l-0.852,2.517
			H108.201z"/>
	</g>
	<g>
		<path class="st1" d="M55.062,123.467v3.639h4.207v-3.639h1.136v8.699h-1.136v-4.078h-4.207v4.078h-1.123v-8.699H55.062z"/>
	</g>
	<g>
		<path class="st1" d="M73.687,127.726c0,2.994-1.82,4.582-4.04,4.582c-2.297,0-3.91-1.781-3.91-4.414
			c0-2.762,1.716-4.569,4.04-4.569C72.151,123.325,73.687,125.144,73.687,127.726z M66.937,127.868c0,1.858,1.007,3.524,2.775,3.524
			c1.781,0,2.788-1.639,2.788-3.614c0-1.729-0.903-3.536-2.775-3.536C67.866,124.241,66.937,125.957,66.937,127.868z"/>
	</g>
	<g>
		<path class="st1" d="M80.18,123.467v5.149c0,1.949,0.865,2.775,2.026,2.775c1.291,0,2.117-0.852,2.117-2.775v-5.149h1.136v5.072
			c0,2.671-1.407,3.769-3.291,3.769c-1.781,0-3.123-1.02-3.123-3.717v-5.124H80.18z"/>
	</g>
	<g>
		<path class="st1" d="M92.442,130.797c0.503,0.31,1.239,0.568,2.013,0.568c1.149,0,1.82-0.606,1.82-1.484
			c0-0.813-0.465-1.278-1.639-1.729c-1.42-0.503-2.297-1.239-2.297-2.465c0-1.355,1.123-2.362,2.814-2.362
			c0.891,0,1.536,0.206,1.923,0.426l-0.31,0.916c-0.284-0.155-0.865-0.413-1.652-0.413c-1.187,0-1.639,0.709-1.639,1.303
			c0,0.813,0.529,1.213,1.729,1.678c1.471,0.568,2.22,1.278,2.22,2.556c0,1.342-0.994,2.504-3.046,2.504
			c-0.839,0-1.755-0.245-2.22-0.555L92.442,130.797z"/>
	</g>
	<g>
		<path class="st1" d="M109.389,128.087h-3.381v3.136h3.769v0.942h-4.891v-8.699h4.698v0.942h-3.575v2.749h3.381V128.087z"/>
	</g>
</g>
</svg>
