<?xml version="1.0" encoding="utf-8"?>
<!-- Generator: Adobe Illustrator 21.0.2, SVG Export Plug-In . SVG Version: 6.00 Build 0)  -->
<svg version="1.1" id="Layer_1" xmlns="http://www.w3.org/2000/svg" xmlns:xlink="http://www.w3.org/1999/xlink" x="0px" y="0px"
	 viewBox="0 0 164 164" style="enable-background:new 0 0 164 164;" xml:space="preserve">
<style type="text/css">
	.st0{fill:none;stroke:#FFFFFF;stroke-width:2;stroke-miterlimit:10;}
	.st1{fill:#FFFFFF;}
</style>
<circle class="st0" cx="82" cy="82" r="81"/>
<path class="st1" d="M99.6,70.2V53.1c0-9.7-7.9-17.6-17.6-17.6c-9.7,0-17.5,7.9-17.5,17.6v17.1h-7.2v9.6H66v21.9h1.5l0.6,26.8h3.8
	l0.6-26.8h1.6V79.8h16.3v21.9h1.5l0.6,26.8h3.8l0.6-26.8h1.6V79.8h8.1v-9.6H99.6z M96.4,79.8v19.7h-1.5l-0.4,17.5L94,99.5h-1.5V79.8
	H96.4z M72,79.8v19.7h-1.6L70,117.1l-0.4-17.5h-1.5V79.8H72z M82,37.7c8.5,0,15.4,6.9,15.4,15.4v19.3h7.2v5.2H59.4v-5.2h7.2V53.1
	C66.6,44.6,73.5,37.7,82,37.7L82,37.7z M82,37.7"/>
</svg>
