<?xml version="1.0" encoding="utf-8"?>
<!-- Generator: Adobe Illustrator 21.0.2, SVG Export Plug-In . SVG Version: 6.00 Build 0)  -->
<svg version="1.1" id="Layer_1" xmlns="http://www.w3.org/2000/svg" xmlns:xlink="http://www.w3.org/1999/xlink" x="0px" y="0px"
	 viewBox="0 0 164 164" style="enable-background:new 0 0 164 164;" xml:space="preserve">
<style type="text/css">
	.st0{fill:none;stroke:#FFFFFF;stroke-width:2;stroke-miterlimit:10;}
</style>
<circle class="st0" cx="82" cy="82" r="81"/>
<g>
	<path class="st0" d="M60.8,71.3c6.5,0,11.7-5.3,11.7-11.7c0-4,1.4-7.7-1.7-9.8c-1.9-1.3-10.1-1.9-12.5-1.9c-2.9,0-6.6,2.4-8.7,4.1
		c-2.5,2.1-0.5,4-0.5,7.6C49.1,66.1,54.3,71.3,60.8,71.3L60.8,71.3z M52.6,58.5c2.2-0.4,3.6,0.3,3.6,0.3l3.6-1.8
		c0,0-1.8,2.6-0.2,1.8c3.7-1.2,7.8-0.7,9.8-0.3c0.1,0.4,0.1,0.9,0.1,1.4c0,4.8-3.8,8.7-8.6,8.7c-4.7,0-8.6-3.9-8.6-8.7
		C52.5,59.4,52.5,58.9,52.6,58.5L52.6,58.5z M52.6,58.5"/>
	<path class="st0" d="M118,58c-0.1-0.7-0.1-1.3-0.2-2c-0.5-4.1-4.1-12.5-14.7-12.2C94,44,92,50.8,91.5,55c-0.3,1-0.5,2.1-0.6,3.2
		c-11.8,2.1-10.6,14.1-3.3,14.3c-0.7-6.3,2.3-10,3.5-11.3c1.1,6.5,6.6,11.5,13.4,11.5c6.4,0,11.8-4.5,13.2-10.5c1.1,2,3,6,2.5,10.3
		C131.6,72.4,126,59.4,118,58L118,58z M104.5,68.8c-5.3,0-9.7-4.3-9.8-9.6c1.9-0.7,3.4-4.1,3.4-4.1s1.2,0.4,1.2,4.2
		c2,0.7,5.5-5.9,5.5-5.9v5.2c2.2,0.6,9.2-0.2,9.2-0.2l0.2,0.2c0,0.1,0,0.2,0,0.3C114.3,64.4,109.9,68.8,104.5,68.8L104.5,68.8z
		 M104.5,68.8"/>
	<polygon class="st0" points="107.3,73.1 96.8,73.1 82.7,90 69,73.3 53.5,73.3 37.3,91.1 40.7,94.6 52.3,84.7 52.3,103.9 
		54.7,103.9 54.7,118.5 53.2,118.5 53.2,120.3 59.9,120.3 59.9,103.9 62.5,103.9 62.5,120.3 69.2,120.3 69.2,118.5 67.7,118.5 
		67.7,103.9 70.6,103.9 70.6,85 79.8,94.6 83.6,93.7 85.7,94.2 96.3,82.1 96.9,86.9 87.1,103.7 98.4,103.7 98.4,118.3 96.9,118.3 
		96.9,120 103.6,120 103.6,118.3 103.6,118.3 103.6,103.7 106.2,103.7 106.2,120 112.9,120 112.9,118.3 111.4,118.3 111.4,103.7 
		120.2,103.7 111.6,86.9 112,81 120.3,92 125.7,90.7 112.7,73.1 	"/>
	<path class="st0" d="M107.3,73.1"/>
</g>
</svg>
