<?xml version="1.0" encoding="utf-8"?>
<!-- Generator: Adobe Illustrator 21.0.2, SVG Export Plug-In . SVG Version: 6.00 Build 0)  -->
<svg version="1.1" id="Layer_1" xmlns="http://www.w3.org/2000/svg" xmlns:xlink="http://www.w3.org/1999/xlink" x="0px" y="0px"
	 viewBox="0 0 45.9 45.9" style="enable-background:new 0 0 45.9 45.9;" xml:space="preserve">
<style type="text/css">
	.st0{fill-rule:evenodd;clip-rule:evenodd;fill:#999999;}
</style>
<path class="st0" d="M22.9,0c12.7,0,22.9,10.3,22.9,22.9c0,12.7-10.3,22.9-22.9,22.9S0,35.6,0,22.9C0,10.3,10.3,0,22.9,0L22.9,0z
	 M19.5,22.9c0.1,0.1,0,0.7,0,0.8l0,12.3h5.4c0-3.2,0-6.6,0-9.8c0,0,0-3.2,0-3.2c0,0,0,0,0-0.1c0,0,3.4,0,3.5,0l0.1,0l0.5-4.5l-4.1,0
	c0-0.7,0-1.3,0-2c0-0.6,0-1.4,0.3-1.7l3.7-0.4l0-4.5c-0.7,0-1.5,0-2.2,0c-0.7,0-1.5,0-2.2,0c-1.4,0.1-2.5,0.5-3.3,1.2
	c-1.2,1.9-1.6,0.3-1.6,7.4l-2.7,0l0,4.5L19.5,22.9L19.5,22.9z"/>
</svg>
