<?xml version="1.0" encoding="utf-8"?>
<!-- Generator: Adobe Illustrator 21.0.2, SVG Export Plug-In . SVG Version: 6.00 Build 0)  -->
<svg version="1.1" id="Layer_1" xmlns="http://www.w3.org/2000/svg" xmlns:xlink="http://www.w3.org/1999/xlink" x="0px" y="0px"
	 viewBox="0 0 124 218.4" style="enable-background:new 0 0 124 218.4;" xml:space="preserve">
<style type="text/css">
	.st0{fill:#FFFFFF;}
</style>
<g>
	<path class="st0" d="M62,154.4c-0.1,0-0.2,0-0.2-0.1L0,66.1C0,66,0,65.9,0.1,65.8c0.1-0.1,0.3-0.1,0.3,0.1L62.2,154
		c0.1,0.1,0.1,0.3-0.1,0.3C62.1,154.4,62.1,154.4,62,154.4z"/>
</g>
<g>
	<path class="st0" d="M62,154.4c-0.1,0-0.1,0-0.2-0.1L0.1,80.8c-0.1-0.1-0.1-0.3,0-0.4c0.1-0.1,0.3-0.1,0.4,0L62.2,154
		c0.1,0.1,0.1,0.3,0,0.4C62.1,154.4,62.1,154.4,62,154.4z"/>
</g>
<g>
	<path class="st0" d="M62,154.4c-0.1,0-0.1,0-0.2-0.1L0.1,92.6c-0.1-0.1-0.1-0.3,0-0.4s0.3-0.1,0.4,0L62.2,154
		c0.1,0.1,0.1,0.3,0,0.4C62.1,154.4,62.1,154.4,62,154.4z"/>
</g>
<g>
	<path class="st0" d="M62,154.4c-0.1,0-0.1,0-0.2-0.1L0.1,102.6c-0.1-0.1-0.1-0.2,0-0.4c0.1-0.1,0.2-0.1,0.4,0L62.2,154
		c0.1,0.1,0.1,0.2,0,0.4C62.1,154.4,62.1,154.4,62,154.4z"/>
</g>
<g>
	<path class="st0" d="M62,154.4c0,0-0.1,0-0.1,0L0.1,111.1C0,111.1,0,110.9,0,110.8s0.2-0.1,0.3-0.1L62.1,154
		c0.1,0.1,0.1,0.2,0.1,0.3C62.2,154.4,62.1,154.4,62,154.4z"/>
</g>
<g>
	<path class="st0" d="M62,154.4c0,0-0.1,0-0.1,0L0.1,118.7C0,118.7,0,118.5,0,118.4c0.1-0.1,0.2-0.2,0.3-0.1L62.1,154
		c0.1,0.1,0.2,0.2,0.1,0.3C62.2,154.4,62.1,154.4,62,154.4z"/>
</g>
<g>
	<path class="st0" d="M62,154.4c0,0-0.1,0-0.1,0L0.1,125.6C0,125.6,0,125.4,0,125.3c0.1-0.1,0.2-0.2,0.3-0.1L62.1,154
		c0.1,0.1,0.2,0.2,0.1,0.3C62.2,154.4,62.1,154.4,62,154.4z"/>
</g>
<g>
	<path class="st0" d="M62,154.4C62,154.4,61.9,154.4,62,154.4L0.2,131.9c-0.1,0-0.2-0.2-0.1-0.3s0.2-0.2,0.3-0.1l61.8,22.5
		c0.1,0,0.2,0.2,0.1,0.3C62.2,154.4,62.1,154.4,62,154.4z"/>
</g>
<g>
	<path class="st0" d="M62,154.4C62,154.4,62,154.4,62,154.4L0.2,137.9c-0.1,0-0.2-0.2-0.2-0.3c0-0.1,0.2-0.2,0.3-0.2l61.8,16.5
		c0.1,0,0.2,0.2,0.2,0.3C62.2,154.4,62.1,154.4,62,154.4z"/>
</g>
<g>
	<path class="st0" d="M62,154.4C62,154.4,62,154.4,62,154.4L0.2,143.5c-0.1,0-0.2-0.2-0.2-0.3c0-0.1,0.2-0.2,0.3-0.2L62,153.9
		c0.1,0,0.2,0.2,0.2,0.3C62.2,154.3,62.1,154.4,62,154.4z"/>
</g>
<g>
	<path class="st0" d="M62,154.4C62,154.4,62,154.4,62,154.4L0.2,149c-0.1,0-0.2-0.1-0.2-0.3s0.1-0.2,0.3-0.2l61.8,5.4
		c0.1,0,0.2,0.1,0.2,0.3C62.2,154.3,62.1,154.4,62,154.4z"/>
</g>
<g>
	<path class="st0" d="M62,154.4H0.3c-0.1,0-0.3-0.1-0.3-0.3s0.1-0.3,0.3-0.3H62c0.1,0,0.3,0.1,0.3,0.3S62.1,154.4,62,154.4z"/>
</g>
<g>
	<path class="st0" d="M123.8,154.4H62c-0.1,0-0.3-0.1-0.3-0.3s0.1-0.3,0.3-0.3h61.8c0.1,0,0.3,0.1,0.3,0.3S123.9,154.4,123.8,154.4z
		"/>
</g>
<g>
	<path class="st0" d="M62,154.4c-0.1,0-0.2-0.1-0.2-0.2c0-0.1,0.1-0.3,0.2-0.3l61.8-5.4c0.1,0,0.3,0.1,0.3,0.2
		c0,0.1-0.1,0.3-0.2,0.3L62,154.4C62,154.4,62,154.4,62,154.4z"/>
</g>
<g>
	<path class="st0" d="M62,154.4c-0.1,0-0.2-0.1-0.2-0.2c0-0.1,0.1-0.3,0.2-0.3l61.8-10.9c0.1,0,0.3,0.1,0.3,0.2
		c0,0.1-0.1,0.3-0.2,0.3L62,154.4C62,154.4,62,154.4,62,154.4z"/>
</g>
<g>
	<path class="st0" d="M62,154.4c-0.1,0-0.2-0.1-0.2-0.2c0-0.1,0-0.3,0.2-0.3l61.8-16.5c0.1,0,0.3,0,0.3,0.2c0,0.1,0,0.3-0.2,0.3
		L62,154.4C62,154.4,62,154.4,62,154.4z"/>
</g>
<g>
	<path class="st0" d="M62,154.4c-0.1,0-0.2-0.1-0.2-0.2c0-0.1,0-0.3,0.1-0.3l61.7-22.5c0.1,0,0.3,0,0.3,0.1c0,0.1,0,0.3-0.1,0.3
		L62,154.4C62.1,154.4,62,154.4,62,154.4z"/>
</g>
<g>
	<path class="st0" d="M62,154.4c-0.1,0-0.2-0.1-0.2-0.1c-0.1-0.1,0-0.3,0.1-0.3l61.8-28.8c0.1-0.1,0.3,0,0.3,0.1
		c0.1,0.1,0,0.3-0.1,0.3l-61.8,28.8C62.1,154.4,62,154.4,62,154.4z"/>
</g>
<g>
	<path class="st0" d="M62,154.4c-0.1,0-0.2,0-0.2-0.1c-0.1-0.1,0-0.3,0.1-0.3l61.8-35.7c0.1-0.1,0.3,0,0.3,0.1
		c0.1,0.1,0,0.3-0.1,0.3l-61.8,35.7C62.1,154.4,62,154.4,62,154.4z"/>
</g>
<g>
	<path class="st0" d="M62,154.4c-0.1,0-0.2,0-0.2-0.1c-0.1-0.1-0.1-0.3,0.1-0.3l61.8-43.2c0.1-0.1,0.3-0.1,0.3,0.1
		c0.1,0.1,0.1,0.3-0.1,0.3l-61.8,43.2C62.1,154.4,62.1,154.4,62,154.4z"/>
</g>
<g>
	<path class="st0" d="M62,154.4c-0.1,0-0.1,0-0.2-0.1c-0.1-0.1-0.1-0.3,0-0.4l61.7-51.8c0.1-0.1,0.3-0.1,0.4,0
		c0.1,0.1,0.1,0.3,0,0.4l-61.8,51.8C62.1,154.4,62.1,154.4,62,154.4z"/>
</g>
<g>
	<path class="st0" d="M62,154.4c-0.1,0-0.1,0-0.2-0.1c-0.1-0.1-0.1-0.3,0-0.4l61.8-61.8c0.1-0.1,0.3-0.1,0.4,0s0.1,0.3,0,0.4
		l-61.8,61.8C62.1,154.4,62.1,154.4,62,154.4z"/>
</g>
<g>
	<path class="st0" d="M62,154.4c-0.1,0-0.1,0-0.2-0.1c-0.1-0.1-0.1-0.2,0-0.4l61.8-73.6c0.1-0.1,0.2-0.1,0.4,0
		c0.1,0.1,0.1,0.2,0,0.4l-61.8,73.6C62.1,154.4,62.1,154.4,62,154.4z"/>
</g>
<g>
	<path class="st0" d="M62,154.4c0,0-0.1,0-0.1,0c-0.1-0.1-0.1-0.2-0.1-0.3l61.7-88.2c0.1-0.1,0.2-0.1,0.3-0.1
		c0.1,0.1,0.1,0.2,0.1,0.3l-61.8,88.2C62.2,154.4,62.1,154.4,62,154.4z"/>
</g>
<g>
	<path class="st0" d="M62,154.4c0,0-0.1,0-0.1,0c-0.1-0.1-0.2-0.2-0.1-0.3l61.7-107c0.1-0.1,0.2-0.2,0.3-0.1
		c0.1,0.1,0.2,0.2,0.1,0.3l-61.8,107C62.2,154.4,62.1,154.4,62,154.4z"/>
</g>
<g>
	<path class="st0" d="M62,154.4C62,154.4,61.9,154.4,62,154.4c-0.2-0.1-0.3-0.2-0.2-0.3l46.2-127c0-0.1,0.2-0.2,0.3-0.1
		c0.1,0,0.2,0.2,0.1,0.3l-46.2,127C62.2,154.4,62.1,154.4,62,154.4z"/>
</g>
<g>
	<path class="st0" d="M62,154.4C62,154.4,62,154.4,62,154.4c-0.2,0-0.3-0.2-0.2-0.3L97.4,20.9c0-0.1,0.2-0.2,0.3-0.2
		c0.1,0,0.2,0.2,0.2,0.3L62.2,154.2C62.2,154.4,62.1,154.4,62,154.4z"/>
</g>
<g>
	<path class="st0" d="M62,154.4C62,154.4,62,154.4,62,154.4c-0.2,0-0.3-0.2-0.2-0.3L86.4,14.5c0-0.1,0.1-0.2,0.3-0.2
		c0.1,0,0.2,0.2,0.2,0.3L62.2,154.2C62.2,154.3,62.1,154.4,62,154.4z"/>
</g>
<g>
	<path class="st0" d="M62,154.4C62,154.4,62,154.4,62,154.4c-0.2,0-0.3-0.1-0.2-0.3L74.6,7.7c0-0.1,0.1-0.2,0.3-0.2
		c0.1,0,0.2,0.1,0.2,0.3L62.2,154.2C62.2,154.3,62.1,154.4,62,154.4z"/>
</g>
<g>
	<path class="st0" d="M62,154.4c-0.1,0-0.3-0.1-0.3-0.3V0.3C61.8,0.1,61.9,0,62,0c0.1,0,0.3,0.1,0.3,0.3v153.9
		C62.3,154.3,62.1,154.4,62,154.4z"/>
</g>
<g>
	<path class="st0" d="M62,154.4c-0.1,0-0.2-0.1-0.2-0.2L37.1,14.6c0-0.1,0.1-0.3,0.2-0.3c0.1,0,0.3,0.1,0.3,0.2l24.6,139.6
		C62.3,154.3,62.2,154.4,62,154.4C62,154.4,62,154.4,62,154.4z"/>
</g>
<g>
	<path class="st0" d="M62,154.4c-0.1,0-0.2-0.1-0.2-0.2L26.1,21.1c0-0.1,0-0.3,0.2-0.3c0.1,0,0.3,0,0.3,0.2l35.7,133.2
		C62.3,154.2,62.2,154.4,62,154.4C62,154.4,62,154.4,62,154.4z"/>
</g>
<g>
	<path class="st0" d="M62,154.4c-0.1,0-0.2-0.1-0.2-0.2l-46.2-127c0-0.1,0-0.3,0.1-0.3c0.1,0,0.3,0,0.3,0.1l46.2,127
		C62.3,154.2,62.2,154.4,62,154.4C62.1,154.4,62,154.4,62,154.4z"/>
</g>
<g>
	<path class="st0" d="M62,154.4c-0.1,0-0.2-0.1-0.2-0.1L5.3,33.2c-0.1-0.1,0-0.3,0.1-0.3c0.1-0.1,0.3,0,0.3,0.1l56.5,121.1
		c0.1,0.1,0,0.3-0.1,0.3C62.1,154.4,62,154.4,62,154.4z"/>
</g>
<g>
	<path class="st0" d="M62,154.4c-0.1,0-0.2-0.1-0.2-0.2L48.9,7.7c0-0.1,0.1-0.3,0.2-0.3c0.1,0,0.3,0.1,0.3,0.2l12.8,146.5
		C62.3,154.3,62.2,154.4,62,154.4C62,154.4,62,154.4,62,154.4z"/>
</g>
<g>
	<path class="st0" d="M62,154.4c-0.1,0-0.2,0-0.2-0.1L0,47.4C0,47.2,0,47.1,0.1,47c0.1-0.1,0.3,0,0.3,0.1l61.8,107
		c0.1,0.1,0,0.3-0.1,0.3C62.1,154.4,62,154.4,62,154.4z"/>
</g>
<g>
	<path class="st0" d="M62,154.4c0,0-0.1,0-0.1,0c-0.1-0.1-0.2-0.2-0.1-0.3L118.2,33c0.1-0.1,0.2-0.2,0.3-0.1
		c0.1,0.1,0.2,0.2,0.1,0.3L62.2,154.3C62.2,154.4,62.1,154.4,62,154.4z"/>
</g>
<g>
	<path class="st0" d="M5.7,169.8H0v-2.1h14v2.1H8.2v16.8H5.7V169.8z"/>
</g>
<g>
	<path class="st0" d="M38.7,177.7h-7.3v6.8h8.2v2H29v-18.9h10.2v2h-7.8v6h7.3V177.7z"/>
</g>
<g>
	<path class="st0" d="M56.4,183.6c1.1,0.7,2.7,1.2,4.4,1.2c2.5,0,3.9-1.3,3.9-3.2c0-1.8-1-2.8-3.6-3.8c-3.1-1.1-5-2.7-5-5.4
		c0-2.9,2.4-5.1,6.1-5.1c1.9,0,3.3,0.4,4.2,0.9l-0.7,2c-0.6-0.3-1.9-0.9-3.6-0.9c-2.6,0-3.6,1.5-3.6,2.8c0,1.8,1.1,2.6,3.8,3.6
		c3.2,1.2,4.8,2.8,4.8,5.5c0,2.9-2.2,5.4-6.6,5.4c-1.8,0-3.8-0.5-4.8-1.2L56.4,183.6z"/>
</g>
<g>
	<path class="st0" d="M83.6,167.7H86v16.8h8.1v2H83.6V167.7z"/>
</g>
<g>
	<path class="st0" d="M112.7,180.6l-2,5.9h-2.5l6.4-18.9h2.9l6.4,18.9h-2.6l-2-5.9H112.7z M118.9,178.7l-1.8-5.4
		c-0.4-1.2-0.7-2.4-1-3.4H116c-0.3,1.1-0.6,2.3-1,3.4l-1.8,5.5H118.9z"/>
</g>
<g>
	<path class="st0" d="M3.5,199.2v7.9h9.1v-7.9h2.5v18.9h-2.5v-8.9H3.5v8.9H1.1v-18.9H3.5z"/>
</g>
<g>
	<path class="st0" d="M44,208.5c0,6.5-3.9,9.9-8.8,9.9c-5,0-8.5-3.9-8.5-9.6c0-6,3.7-9.9,8.8-9.9C40.6,198.9,44,202.9,44,208.5z
		 M29.3,208.8c0,4,2.2,7.6,6,7.6c3.9,0,6.1-3.6,6.1-7.8c0-3.8-2-7.7-6-7.7C31.3,200.9,29.3,204.6,29.3,208.8z"/>
</g>
<g>
	<path class="st0" d="M58,199.2v11.2c0,4.2,1.9,6,4.4,6c2.8,0,4.6-1.8,4.6-6v-11.2h2.5v11c0,5.8-3.1,8.2-7.1,8.2
		c-3.9,0-6.8-2.2-6.8-8.1v-11.1H58z"/>
</g>
<g>
	<path class="st0" d="M84.7,215.1c1.1,0.7,2.7,1.2,4.4,1.2c2.5,0,3.9-1.3,3.9-3.2c0-1.8-1-2.8-3.6-3.8c-3.1-1.1-5-2.7-5-5.4
		c0-2.9,2.4-5.1,6.1-5.1c1.9,0,3.3,0.4,4.2,0.9l-0.7,2c-0.6-0.3-1.9-0.9-3.6-0.9c-2.6,0-3.6,1.5-3.6,2.8c0,1.8,1.1,2.6,3.8,3.6
		c3.2,1.2,4.8,2.8,4.8,5.5c0,2.9-2.2,5.4-6.6,5.4c-1.8,0-3.8-0.5-4.8-1.2L84.7,215.1z"/>
</g>
<g>
	<path class="st0" d="M121.5,209.2h-7.3v6.8h8.2v2h-10.6v-18.9h10.2v2h-7.8v6h7.3V209.2z"/>
</g>
</svg>
