<?xml version="1.0" encoding="utf-8"?>
<!-- Generator: Adobe Illustrator 21.0.2, SVG Export Plug-In . SVG Version: 6.00 Build 0)  -->
<svg version="1.1" id="Layer_1" xmlns="http://www.w3.org/2000/svg" xmlns:xlink="http://www.w3.org/1999/xlink" x="0px" y="0px"
	 viewBox="0 0 45.9 45.9" style="enable-background:new 0 0 45.9 45.9;" xml:space="preserve">
<style type="text/css">
	.st0{fill-rule:evenodd;clip-rule:evenodd;fill:#999999;}
</style>
<g>
	<path class="st0" d="M24.2,19.3L24.2,19.3C24.2,19.3,24.2,19.3,24.2,19.3L24.2,19.3z"/>
	<path class="st0" d="M22.9,0C10.3,0,0,10.3,0,22.9c0,12.7,10.3,22.9,22.9,22.9c12.7,0,22.9-10.3,22.9-22.9C45.9,10.3,35.6,0,22.9,0
		z M17,31.3h-4.6v-14H17V31.3z M14.7,15.4L14.7,15.4c-1.6,0-2.6-1.1-2.6-2.4c0-1.4,1-2.4,2.6-2.4c1.6,0,2.6,1,2.6,2.4
		C17.3,14.3,16.3,15.4,14.7,15.4z M33.8,31.3h-4.7v-7.5c0-1.9-0.7-3.2-2.4-3.2c-1.3,0-2,0.9-2.4,1.7c-0.1,0.3-0.2,0.7-0.2,1.1v7.8
		h-4.7c0,0,0.1-12.7,0-14h4.7v2c0.6-0.9,1.7-2.3,4.2-2.3c3.1,0,5.4,2,5.4,6.3V31.3z"/>
</g>
</svg>
