<?xml version="1.0" encoding="utf-8"?>
<!-- Generator: Adobe Illustrator 21.0.2, SVG Export Plug-In . SVG Version: 6.00 Build 0)  -->
<svg version="1.1" id="Layer_1" xmlns="http://www.w3.org/2000/svg" xmlns:xlink="http://www.w3.org/1999/xlink" x="0px" y="0px"
	 viewBox="0 0 146.2 159.7" style="enable-background:new 0 0 146.2 159.7;" xml:space="preserve">
<style type="text/css">
	.st0{fill:none;stroke:#FFFFFF;stroke-width:4;stroke-miterlimit:10;}
</style>
<path class="st0" d="M100.3,154.9c-6.7,1.8-13.6,2.7-20.4,2.7c-35.1,0-66-23.7-75.1-57.5C-6.5,58.7,18.1,15.8,59.5,4.6
	c3-0.8,6-1.4,9.1-1.9C53.9,21.9,49,46.7,55.4,70.4c9.2,33.9,40.1,57.6,75.3,57.6c3.7,0,7.3-0.3,11-0.8
	C131.3,140.7,116.9,150.5,100.3,154.9L100.3,154.9z"/>
<polygon class="st0" points="82.8,49.5 96.2,45.7 100.3,32.3 104.2,45.7 117.5,49.9 104.1,53.7 100,67 96.1,53.6 "/>
<polygon class="st0" points="112,72.5 121.4,69.4 123.9,59.9 127,69.3 136.5,71.8 127.1,74.9 124.6,84.4 121.5,75 "/>
<path class="st0" d="M112,72.5"/>
</svg>
