<?xml version="1.0" encoding="utf-8"?>
<!-- Generator: Adobe Illustrator 21.0.2, SVG Export Plug-In . SVG Version: 6.00 Build 0)  -->
<svg version="1.1" id="Layer_1" xmlns="http://www.w3.org/2000/svg" xmlns:xlink="http://www.w3.org/1999/xlink" x="0px" y="0px"
	 viewBox="0 0 99.8 99.8" style="enable-background:new 0 0 99.8 99.8;" xml:space="preserve">
<style type="text/css">
	.st0{fill:#999999;}
</style>
<g>
	<path class="st0" d="M49.9,0C22.4,0,0,22.4,0,49.9C0,77.6,22.4,100,49.9,99.8c27.5,0,49.9-22.2,49.9-49.9C99.8,22.4,77.6,0,49.9,0z
		 M71.2,69.3c-1.3,2.2-2.8,4.1-5,5.4c-1.3,0.9-3.3,1.3-5.9,1.7c-3.5,0.4-5.7,0.7-7,0.7H27V22.7h28.8c4.8,0,8.5,1.3,11.1,3.9
		c2.6,2.6,3.9,5.9,3.9,9.6c0,3.3-0.9,6.1-2.8,8.3c-1.3,1.5-3.1,2.8-5.4,3.7c3.5,0.9,6.3,2.6,7.8,4.8c1.7,2.4,2.6,5.2,2.6,8.7
		C73,64.5,72.3,67.1,71.2,69.3z"/>
	<path class="st0" d="M54.2,42.7c0.9-0.9,1.3-2.2,1.3-3.9c0-1.5-0.4-2.8-1.3-3.7s-2.6-1.3-5-1.3h-6.8V44h6.8
		C51.6,44,53.4,43.6,54.2,42.7z"/>
	<path class="st0" d="M50.5,54.5h-7.8v11.1h7.6c2.6,0,4.6-0.4,5.7-1.5c1.1-1.1,1.7-2.4,1.7-4.1c0-1.5-0.4-2.8-1.5-3.9
		S53.2,54.5,50.5,54.5z"/>
</g>
</svg>
