<?xml version="1.0" encoding="UTF-8"?><!DOCTYPE svg PUBLIC "-//W3C//DTD SVG 1.1//EN" "http://www.w3.org/Graphics/SVG/1.1/DTD/svg11.dtd"><svg xmlns="http://www.w3.org/2000/svg"><symbol id="icon-1" viewBox="0 0 164 164">
    <style>
        .st0{fill:none;stroke:#fff;stroke-width:2;stroke-miterlimit:10}.st1{fill:#fff}
    </style>
    <circle class="st0" cx="82" cy="82" r="81"/>
    <path class="st1" d="M86.3 125.1h-8.6c-.5 0-1-.4-1-1v-14.2H38.4c-.4 0-.7-.2-.9-.6-.2-.4-.1-.8.2-1.1l17.9-18.1 5.8-5.9c.2-.2.4-.3.7-.3H102c.3 0 .5.1.7.3l5.8 5.9 17.9 18.1c.3.3.4.7.2 1.1-.2.4-.5.6-.9.6H87.3v14.2c0 .5-.5 1-1 1zm-7.6-2h6.7v-13.2h-6.7v13.2zm24.7-15.2h19.9l-7.8-7.9H100l3.4 7.9zm-20.4 0h18.3L98 100H83v7.9zm-20.3 0H81V100H66l-3.3 7.9zm-22 0h19.9l3.3-7.9H48.5l-7.8 7.9zm58.5-9.8h14.4l-6.3-6.4H96.5l2.7 6.4zm-16.2 0h14.2l-2.7-6.4H83v6.4zm-16.1 0H81v-6.4H69.6l-2.7 6.4zm-16.5 0h14.4l2.7-6.4H56.7l-6.3 6.4zm45.3-8.3h9.7l-3.9-3.9H94l1.7 3.9zm-12.7 0h10.6l-1.7-3.9h-9v3.9zm-12.6 0H81v-3.9h-9l-1.6 3.9zm-11.8 0h9.7l1.7-3.9h-7.5l-3.9 3.9zM82 75.2c-.5 0-1-.4-1-1v-5c0-.5.4-1 1-1 .5 0 1 .4 1 1v5c0 .6-.5 1-1 1zm12.1-5c-.2 0-.5-.1-.7-.3l-3.6-3.6c-.4-.4-.4-1 0-1.4.4-.4 1-.4 1.4 0l3.6 3.6c.4.4.4 1 0 1.4-.2.2-.4.3-.7.3zm-24.2 0c-.2 0-.5-.1-.7-.3-.4-.4-.4-1 0-1.4l3.6-3.6c.4-.4 1-.4 1.4 0 .4.4.4 1 0 1.4l-3.6 3.6c-.2.2-.5.3-.7.3zM82 66.1c-4.9 0-9-4-9-9 0-4.9 4-9 9-9 4.9 0 8.9 4 8.9 9 .1 5-4 9-8.9 9zm0-16c-3.9 0-7 3.1-7 7s3.1 7 7 7 7-3.1 7-7-3.1-7-7-7zm17.2 8h-5c-.5 0-1-.4-1-1 0-.5.4-1 1-1h5c.5 0 1 .4 1 1-.1.5-.5 1-1 1zm-29.3 0h-5c-.5 0-1-.4-1-1 0-.5.4-1 1-1h5c.5 0 1 .4 1 1-.1.5-.5 1-1 1zm20.7-8.6c-.2 0-.5-.1-.7-.3-.4-.4-.4-1 0-1.4l3.6-3.6c.4-.4 1-.4 1.4 0 .4.4.4 1 0 1.4l-3.5 3.6c-.3.2-.6.3-.8.3zm-17.2 0c-.2 0-.5-.1-.7-.3l-3.6-3.6c-.4-.4-.4-1 0-1.4.4-.4 1-.4 1.4 0l3.6 3.6c.4.4.4 1 0 1.4-.2.2-.4.3-.7.3zm8.6-3.6c-.5 0-1-.4-1-1v-5c0-.5.4-1 1-1 .5 0 1 .4 1 1v5c0 .6-.5 1-1 1zm0 0"/>
</symbol><symbol id="icon-10" viewBox="0 0 164 164">
    <style>
        .st0{fill:none;stroke:#fff;stroke-width:2;stroke-miterlimit:10}
    </style>
    <circle class="st0" cx="82" cy="82" r="81"/>
    <path class="st0" d="M32.9 87.7c-1.4 0-2.5-1.2-2.5-2.8V80c0-1.5 1.1-2.8 2.5-2.8h2.5v10.4h-2.5z"/>
    <path class="st0" d="M42.2 101.7c-1.5 0-2.8-1.2-2.8-2.8V67.2c0-1.5 1.2-2.8 2.8-2.8h4.5v37.2h-4.5z"/>
    <path class="st0" d="M61.1 108.1c0 1.5-1.2 2.8-2.8 2.8h-5c-1.5 0-2.8-1.2-2.8-2.8V55.9c0-1.5 1.2-2.8 2.8-2.8h5c1.5 0 2.8 1.2 2.8 2.8v52.2z"/>
    <path class="st0" d="M65 76.3h34v10.5H65z"/>
    <path class="st0" d="M113.4 108.1c0 1.5-1.2 2.8-2.8 2.8h-5c-1.5 0-2.8-1.2-2.8-2.8V55.9c0-1.5 1.2-2.8 2.8-2.8h5c1.5 0 2.8 1.2 2.8 2.8v52.2z"/>
    <path class="st0" d="M124.6 96.8c0 1.5-1.2 2.8-2.8 2.8h-4.5V62.3h4.5c1.5 0 2.8 1.2 2.8 2.8v31.7z"/>
    <path class="st0" d="M133.6 84c0 1.5-1.1 2.8-2.5 2.8h-2.5V76.3h2.5c1.4 0 2.5 1.2 2.5 2.8V84z"/>
</symbol><symbol id="icon-11" viewBox="0 0 164 164">
    <style>
        .st0{fill:none;stroke:#fff;stroke-width:2;stroke-miterlimit:10}
    </style>
    <circle class="st0" cx="82" cy="82" r="81"/>
    <path class="st0" d="M104.7 36.6s-7.5 7.2-15.5 10.2c-59.8 21.6-34.6 63.8-33.7 63.9 0 0 3.4-5.8 7.9-9.2C92 80.4 97.9 56.1 97.9 56.1s-6.5 29.3-32 47.5c-5.6 4-9.5 13.9-11.1 23.8 0 0 4-1.6 5.7-2.1.7-4.4 2.1-8.6 4.4-12.3 35.7 4.3 47.4-24.5 49-34.6 3.6-23.7-9.2-41.8-9.2-41.8zm0 0"/>
</symbol><symbol id="icon-2" viewBox="0 0 164 164">
    <style>
        .st0{fill:none;stroke:#fff;stroke-width:2;stroke-miterlimit:10}.st1{fill:#fff}
    </style>
    <circle class="st0" cx="82" cy="82" r="81"/>
    <path class="st1" d="M103.6 47.7H54.4c-2 0-3.6 1.6-3.6 3.6v61.5c0 2 1.6 3.6 3.6 3.6h49.2c2 0 3.6-1.6 3.6-3.6V51.3c0-2-1.6-3.6-3.6-3.6zm1.3 65c0 .7-.6 1.3-1.3 1.3H80.2V66c0-.6-.5-1.2-1.2-1.2-.6 0-1.2.5-1.2 1.2v48H54.4c-.7 0-1.3-.6-1.3-1.3V51.3c0-.7.6-1.3 1.3-1.3h23.4v3.8c0 .6.5 1.2 1.2 1.2.6 0 1.2-.5 1.2-1.2V50h23.4c.7 0 1.3.6 1.3 1.3v61.4zm0 0"/>
    <path class="st1" d="M79 57.5c-.6 0-1.2.5-1.2 1.2v2.5c0 .6.5 1.2 1.2 1.2.6 0 1.2-.5 1.2-1.2v-2.5c0-.7-.6-1.2-1.2-1.2zm0 0"/>
    <path class="st1" d="M127.4 97.2l-5.4 5.4V61.4l5.4 5.4c.2.2.5.3.8.3.3 0 .6-.1.8-.3.5-.5.5-1.2 0-1.6l-7.4-7.4-.1-.1h-.1-.1-.1-.1-.1-.1-.1-.1-.1-.1-.1-.1-.1-.1-.1-.1-.1-.1s-.1 0-.1.1l-7.4 7.4c-.5.4-.5 1.2 0 1.6.2.2.5.3.8.3s.6-.1.8-.3l5.4-5.4v41.1l-5.4-5.4c-.5-.5-1.2-.5-1.6 0-.5.5-.5 1.2 0 1.6l7.4 7.4.1.1H121.7s.1 0 .1-.1l7.4-7.4c.5-.5.5-1.2 0-1.6-.7-.4-1.4-.4-1.8.1zm0 0"/>
</symbol><symbol id="icon-3" viewBox="0 0 164 164">
    <style>
        .st0{fill:none;stroke:#fff;stroke-width:2;stroke-miterlimit:10}
    </style>
    <circle class="st0" cx="82" cy="82" r="81"/>
    <path class="st0" d="M106.4 51.5l-24 34L58 52.3l-13.4 55.6h18.2L66 90.1l16.1 22.4 16-21.9 3.2 17.4h18.1l-13-56.5zm0 0"/>
</symbol><symbol id="icon-4" viewBox="0 0 164 164">
    <style>
        .st0{fill:none;stroke:#fff;stroke-width:2;stroke-miterlimit:10}
    </style>
    <circle class="st0" cx="82" cy="82" r="81"/>
    <path class="st0" d="M101.8 75.7c-.3 0-.6 0-.9.1l-3.5 1-3.7-8.9c-1-2.5-4.1-4.6-6.8-4.6H52.5c-2.7 0-5.8 2.1-6.8 4.6L42 76.8l-3.5-1c-.3-.1-.6-.1-.9-.1-1.7 0-2.9 1.3-2.9 3v2.1c0 2 1.7 3.7 3.7 3.7h.4l-.5 1.5c-1 2.3-1.7 6.3-1.7 8.9v17.7c0 2 1.7 3.7 3.7 3.7h4.9c2 0 3.7-1.7 3.7-3.7v-4.4h41.7v4.4c0 2 1.7 3.7 3.7 3.7h4.9c2 0 3.7-1.7 3.7-3.7V94.8c0-2.5-.8-6.5-1.7-8.9l-.6-1.4h.4c2 0 3.7-1.7 3.7-3.7v-2.1c-.1-1.7-1.3-3-2.9-3zm-57.1 6.8L50.2 69c.6-1.5 2.5-2.8 4.1-2.8H85c1.6 0 3.5 1.2 4.1 2.8l5.5 13.5c.6 1.5-.2 2.8-1.8 2.8H46.5c-1.6-.1-2.4-1.3-1.8-2.8zm12.4 17.1c0 .8-.7 1.5-1.5 1.5H45c-.8 0-1.5-.7-1.5-1.5v-5.1c0-.8.7-1.5 1.5-1.5h10.5c.8 0 1.5.7 1.5 1.5v5.1zm38.6 0c0 .8-.7 1.5-1.5 1.5H83.7c-.8 0-1.5-.7-1.5-1.5v-5.1c0-.8.7-1.5 1.5-1.5h10.5c.8 0 1.5.7 1.5 1.5v5.1zm0 0"/>
    <path class="st0" d="M124.6 47.7H107c-2.6 0-4.6 2.1-4.6 4.6V70c0 2.6 2.1 4.6 4.6 4.6h7.1v39.5c0 1 .8 1.7 1.7 1.7 1 0 1.7-.8 1.7-1.7V74.6h7.1c2.6 0 4.6-2.1 4.6-4.6V52.4c.1-2.6-2-4.7-4.6-4.7zm-4 14.6c-1 .9-2.5 1.4-4.4 1.4h-2.5c-.3 0-.6.2-.6.6v4.3c0 .5-.4.8-.8.8h-1.9c-.5 0-.8-.4-.8-.8V53.8c0-.5.4-.8.8-.8h4.9c3.2 0 4.4.5 5.4 1.3 1 .9 1.6 2.2 1.6 4-.1 1.8-.7 3.1-1.7 4zm0 0"/>
    <path class="st0" d="M117.9 56.5c-.5-.4-1.3-.5-2.5-.5h-1.7c-.3 0-.6.2-.6.6v3.5c0 .3.2.6.6.6h1c.4 0 1 0 1.4-.1.4 0 1.4-.2 1.8-.5.5-.3.7-.9.7-1.8 0-.8-.3-1.4-.7-1.8zm0 0"/>
</symbol><symbol id="icon-5" viewBox="0 0 164 164">
    <style>
        .st0{fill:none;stroke:#fff;stroke-width:2;stroke-miterlimit:10}.st1{fill:#fff}
    </style>
    <circle class="st0" cx="82" cy="82" r="81"/>
    <path class="st1" d="M125.3 115.4h-13c-.5 0-.9-.4-.9-.9s.4-.9.9-.9h1.5l.9-45.6c-1.2 1.7-2.9 3.9-5.4 6-4.8 4.2-13.5 9.2-27.4 9.2-13.9 0-22.5-5-27.2-9.2-2.4-2.1-4.1-4.3-5.2-5.9l.9 45.5h1.5c.5 0 .9.4.9.9s-.4.9-.9.9h-13c-.5 0-.9-.4-.9-.9s.4-.9.9-.9h1.5l.9-49.2c0-.5.4-.9.9-.9h.1v-2.2c-2.2-1.1-3.6-3.4-3.6-5.9a6.7 6.7 0 0 1 13.4 0c0 2.6-1.5 4.8-3.6 5.9v2.2H48.8c.1 0 .3.1.4.1l.3.3.1.1c.1.3 1.9 4.5 6.7 8.7 4.5 4 12.7 8.7 25.9 8.7 25.1 0 32.7-16.8 33-17.3 0-.1 0-.1.1-.1l.3-.3c.1-.1.2-.1.4-.1H116.3v-2.2c-2.2-1.1-3.6-3.4-3.6-5.9a6.7 6.7 0 0 1 13.4 0c0 2.6-1.5 4.8-3.6 5.9v2.2h.1c.5 0 .9.4.9.9l.9 49.2h1.5c.5 0 .9.4.9.9-.6.4-1 .8-1.5.8zm-9.6-1.8h6.2l-.9-48.3h-4.4l-.9 48.3zm-73.6 0h6.2l-.9-48.3H43l-.9 48.3zm75.5-50.2h2.3v-1.5h-2.3v1.5zm-73.6 0h2.3v-1.5H44v1.5zm74.8-3.3c2.7 0 4.8-2.2 4.8-4.8 0-2.6-2.2-4.8-4.8-4.8-2.6 0-4.8 2.2-4.8 4.8 0 2.6 2.1 4.8 4.8 4.8zm-73.6 0c2.7 0 4.8-2.2 4.8-4.8 0-2.6-2.2-4.8-4.8-4.8-2.7 0-4.8 2.2-4.8 4.8 0 2.6 2.2 4.8 4.8 4.8zm0 0"/>
</symbol><symbol id="icon-6" viewBox="0 0 164 164">
    <style>
        .st0{fill:none;stroke:#fff;stroke-width:2;stroke-miterlimit:10}.st1{fill:#fff}
    </style>
    <circle class="st0" cx="82" cy="82" r="81"/>
    <path class="st1" d="M82 102.836a.114.114 0 0 1-.094-.049L53.458 62.16a.114.114 0 0 1 .028-.16.114.114 0 0 1 .16.028l28.448 40.627a.116.116 0 0 1-.028.161.114.114 0 0 1-.066.02z"/>
    <path class="st1" d="M82 102.836a.115.115 0 0 1-.088-.041L53.464 68.893a.114.114 0 0 1 .014-.162.114.114 0 0 1 .162.014l28.447 33.902a.114.114 0 0 1-.087.189z"/>
    <path class="st1" d="M82 102.836a.112.112 0 0 1-.081-.034L53.471 74.355a.115.115 0 0 1 .163-.163l28.447 28.447a.115.115 0 0 1-.081.197z"/>
    <path class="st1" d="M82 102.836a.117.117 0 0 1-.074-.027l-28.447-23.87a.114.114 0 0 1-.014-.162.115.115 0 0 1 .162-.014l28.448 23.87a.114.114 0 0 1 .014.162.118.118 0 0 1-.089.041z"/>
    <path class="st1" d="M82 102.836a.115.115 0 0 1-.066-.021l-28.447-19.92a.115.115 0 0 1 .132-.189l28.447 19.92a.115.115 0 0 1-.066.21z"/>
    <path class="st1" d="M82 102.836a.122.122 0 0 1-.058-.015L53.495 86.397a.115.115 0 0 1 .115-.199l28.447 16.424a.115.115 0 0 1-.057.214z"/>
    <path class="st1" d="M82 102.836a.124.124 0 0 1-.049-.011L53.504 89.56a.115.115 0 0 1-.056-.153.116.116 0 0 1 .153-.056l28.447 13.265a.115.115 0 0 1 .056.153.113.113 0 0 1-.104.067z"/>
    <path class="st1" d="M82 102.836a.107.107 0 0 1-.039-.007L53.513 92.475a.115.115 0 1 1 .079-.217l28.448 10.355c.059.022.09.088.069.148a.116.116 0 0 1-.109.075z"/>
    <path class="st1" d="M82 102.836a.103.103 0 0 1-.03-.004L53.523 95.21a.115.115 0 0 1-.081-.141.114.114 0 0 1 .141-.081l28.447 7.622c.061.016.098.08.081.141a.113.113 0 0 1-.111.085z"/>
    <path class="st1" d="M82 102.836c-.007 0-.014 0-.02-.002l-28.447-5.016a.115.115 0 0 1-.093-.133.116.116 0 0 1 .133-.094l28.447 5.016a.114.114 0 0 1 .093.133.115.115 0 0 1-.113.096z"/>
    <path class="st1" d="M82 102.836h-.01l-28.447-2.489a.116.116 0 0 1-.105-.125c.006-.063.061-.114.125-.105l28.447 2.489c.063.005.11.061.105.125a.116.116 0 0 1-.115.105z"/>
    <path class="st1" d="M82 102.836H53.553a.115.115 0 0 1 0-.23H82c.063 0 .115.052.115.115s-.052.115-.115.115z"/>
    <path class="st1" d="M110.447 102.836H82a.115.115 0 0 1 0-.23h28.447a.115.115 0 0 1 0 .23z"/>
    <path class="st1" d="M82 102.836a.115.115 0 0 1-.01-.23l28.448-2.489a.115.115 0 1 1 .02.23l-28.447 2.489H82z"/>
    <path class="st1" d="M82 102.836a.115.115 0 0 1-.02-.228l28.448-5.016c.065-.014.122.031.133.094a.115.115 0 0 1-.094.133l-28.447 5.016-.02.001z"/>
    <path class="st1" d="M82 102.836a.115.115 0 0 1-.03-.226l28.448-7.622a.115.115 0 1 1 .06.222l-28.447 7.622a.115.115 0 0 1-.031.004z"/>
    <path class="st1" d="M82 102.836a.115.115 0 0 1-.039-.224l28.447-10.355a.115.115 0 1 1 .079.217L82.04 102.83a.144.144 0 0 1-.04.006z"/>
    <path class="st1" d="M82 102.836a.115.115 0 0 1-.104-.067.115.115 0 0 1 .056-.153l28.447-13.265a.115.115 0 0 1 .153.056.115.115 0 0 1-.056.153l-28.447 13.265a.11.11 0 0 1-.049.011z"/>
    <path class="st1" d="M82 102.836a.115.115 0 0 1-.1-.058.114.114 0 0 1 .042-.157l28.447-16.424a.116.116 0 0 1 .157.042.115.115 0 0 1-.042.157L82.057 102.82a.105.105 0 0 1-.057.016z"/>
    <path class="st1" d="M82 102.836a.116.116 0 0 1-.066-.21l28.447-19.92a.116.116 0 0 1 .161.028.116.116 0 0 1-.028.161l-28.447 19.92a.113.113 0 0 1-.067.021z"/>
    <path class="st1" d="M82 102.836a.115.115 0 0 1-.074-.203l28.447-23.87a.114.114 0 0 1 .162.014.114.114 0 0 1-.014.162l-28.447 23.87a.115.115 0 0 1-.074.027z"/>
    <path class="st1" d="M82 102.836a.115.115 0 0 1-.081-.197l28.447-28.447a.115.115 0 0 1 .163.163l-28.447 28.447a.116.116 0 0 1-.082.034z"/>
    <path class="st1" d="M82 102.836a.114.114 0 0 1-.088-.189l28.447-33.902a.115.115 0 0 1 .162-.014.115.115 0 0 1 .014.162l-28.447 33.902a.115.115 0 0 1-.088.041z"/>
    <path class="st1" d="M82 102.836a.115.115 0 0 1-.094-.182l28.447-40.627a.115.115 0 0 1 .189.132l-28.447 40.627a.116.116 0 0 1-.095.05z"/>
    <path class="st1" d="M82 102.836a.115.115 0 0 1-.1-.172l28.447-49.272a.114.114 0 0 1 .157-.042.115.115 0 0 1 .042.157L82.1 102.779a.115.115 0 0 1-.1.057z"/>
    <path class="st1" d="M82 102.836a.115.115 0 0 1-.108-.155l21.301-58.526a.116.116 0 0 1 .148-.069c.059.022.09.088.069.148L82.109 102.76a.116.116 0 0 1-.109.076z"/>
    <path class="st1" d="M82 102.836a.115.115 0 0 1-.111-.145l16.44-61.353a.116.116 0 0 1 .141-.081c.062.017.098.08.081.141l-16.44 61.353a.113.113 0 0 1-.111.085z"/>
    <path class="st1" d="M82 102.836c-.007 0-.014 0-.02-.002a.115.115 0 0 1-.093-.133l11.342-64.318a.112.112 0 0 1 .133-.093.115.115 0 0 1 .094.133L82.114 102.74a.116.116 0 0 1-.114.096z"/>
    <path class="st1" d="M82 102.836h-.01a.116.116 0 0 1-.105-.125l5.904-67.481a.119.119 0 0 1 .125-.105c.063.006.11.061.105.125l-5.904 67.48a.116.116 0 0 1-.115.106z"/>
    <path class="st1" d="M82 102.836a.115.115 0 0 1-.115-.115V31.808a.115.115 0 0 1 .23 0v70.913a.115.115 0 0 1-.115.115z"/>
    <path class="st1" d="M82 102.836a.115.115 0 0 1-.113-.095l-11.34-64.317a.115.115 0 0 1 .226-.04l11.34 64.318a.115.115 0 0 1-.093.133l-.02.001z"/>
    <path class="st1" d="M82 102.836a.115.115 0 0 1-.111-.085l-16.44-61.353a.115.115 0 0 1 .081-.141.116.116 0 0 1 .141.081l16.44 61.353a.115.115 0 0 1-.111.145z"/>
    <path class="st1" d="M82 102.836a.115.115 0 0 1-.108-.076L60.59 44.235a.115.115 0 1 1 .217-.079l21.302 58.526a.115.115 0 0 1-.069.148.144.144 0 0 1-.04.006z"/>
    <path class="st1" d="M82 102.836a.115.115 0 0 1-.104-.067L55.882 46.984a.115.115 0 0 1 .056-.153.115.115 0 0 1 .153.056l26.013 55.786a.115.115 0 0 1-.104.163z"/>
    <path class="st1" d="M82 102.836a.116.116 0 0 1-.115-.105l-5.904-67.48a.115.115 0 0 1 .105-.125.114.114 0 0 1 .125.105l5.904 67.481a.116.116 0 0 1-.105.125l-.01-.001z"/>
    <path class="st1" d="M82 102.836a.115.115 0 0 1-.1-.058L53.453 53.506a.114.114 0 0 1 .042-.157.114.114 0 0 1 .157.042L82.1 102.664a.115.115 0 0 1-.042.157.12.12 0 0 1-.058.015z"/>
    <path class="st1" d="M82 102.836a.115.115 0 0 1-.105-.164l26.013-55.786a.116.116 0 0 1 .153-.056.115.115 0 0 1 .056.153L82.104 102.77a.114.114 0 0 1-.104.066z"/>
    <path class="st1" d="M56.083 109.903h-2.646v-.955h6.44v.955h-2.659v7.744h-1.136v-7.744z"/>
    <path class="st1" d="M71.282 113.569h-3.381v3.136h3.769v.942h-4.891v-8.699h4.698v.942h-3.575v2.749h3.381v.93z"/>
    <path class="st1" d="M79.441 116.279c.503.31 1.239.568 2.013.568 1.149 0 1.82-.606 1.82-1.484 0-.813-.465-1.278-1.639-1.729-1.42-.503-2.297-1.239-2.297-2.465 0-1.355 1.123-2.362 2.814-2.362.891 0 1.536.206 1.923.426l-.31.916a3.464 3.464 0 0 0-1.652-.413c-1.187 0-1.639.709-1.639 1.303 0 .813.529 1.213 1.729 1.678 1.471.568 2.22 1.278 2.22 2.555 0 1.342-.994 2.504-3.046 2.504-.839 0-1.755-.245-2.22-.555l.284-.942z"/>
    <path class="st1" d="M91.937 108.948h1.123v7.757h3.717v.942h-4.84v-8.699z"/>
    <path class="st1" d="M105.348 114.911l-.903 2.736h-1.162l2.956-8.699h1.355l2.968 8.699h-1.2l-.929-2.736h-3.085zm2.853-.878l-.852-2.504c-.193-.568-.323-1.084-.452-1.587h-.026a26.125 26.125 0 0 1-.439 1.574l-.852 2.517h2.621z"/>
    <path class="st1" d="M55.062 123.467v3.639h4.207v-3.639h1.136v8.699h-1.136v-4.078h-4.207v4.078h-1.123v-8.699h1.123z"/>
    <path class="st1" d="M73.687 127.726c0 2.994-1.82 4.582-4.04 4.582-2.297 0-3.91-1.781-3.91-4.414 0-2.762 1.716-4.569 4.04-4.569 2.374 0 3.91 1.819 3.91 4.401zm-6.75.142c0 1.858 1.007 3.524 2.775 3.524 1.781 0 2.788-1.639 2.788-3.614 0-1.729-.903-3.536-2.775-3.536-1.859-.001-2.788 1.715-2.788 3.626z"/>
    <path class="st1" d="M80.18 123.467v5.149c0 1.949.865 2.775 2.026 2.775 1.291 0 2.117-.852 2.117-2.775v-5.149h1.136v5.072c0 2.671-1.407 3.769-3.291 3.769-1.781 0-3.123-1.02-3.123-3.717v-5.124h1.135z"/>
    <path class="st1" d="M92.442 130.797c.503.31 1.239.568 2.013.568 1.149 0 1.82-.606 1.82-1.484 0-.813-.465-1.278-1.639-1.729-1.42-.503-2.297-1.239-2.297-2.465 0-1.355 1.123-2.362 2.814-2.362.891 0 1.536.206 1.923.426l-.31.916a3.464 3.464 0 0 0-1.652-.413c-1.187 0-1.639.709-1.639 1.303 0 .813.529 1.213 1.729 1.678 1.471.568 2.22 1.278 2.22 2.556 0 1.342-.994 2.504-3.046 2.504-.839 0-1.755-.245-2.22-.555l.284-.943z"/>
    <path class="st1" d="M109.389 128.087h-3.381v3.136h3.769v.942h-4.891v-8.699h4.698v.942h-3.575v2.749h3.381v.93z"/>
</symbol><symbol id="icon-7" viewBox="0 0 164 164">
    <style>
        .st0{fill:none;stroke:#fff;stroke-width:2;stroke-miterlimit:10}.st1{fill:#fff}
    </style>
    <circle class="st0" cx="82" cy="82" r="81"/>
    <path class="st1" d="M99.6 70.2V53.1c0-9.7-7.9-17.6-17.6-17.6-9.7 0-17.5 7.9-17.5 17.6v17.1h-7.2v9.6H66v21.9h1.5l.6 26.8h3.8l.6-26.8h1.6V79.8h16.3v21.9h1.5l.6 26.8h3.8l.6-26.8h1.6V79.8h8.1v-9.6h-7zm-3.2 9.6v19.7h-1.5l-.4 17.5-.5-17.5h-1.5V79.8h3.9zm-24.4 0v19.7h-1.6l-.4 17.6-.4-17.5h-1.5V79.8H72zm10-42.1c8.5 0 15.4 6.9 15.4 15.4v19.3h7.2v5.2H59.4v-5.2h7.2V53.1c0-8.5 6.9-15.4 15.4-15.4zm0 0"/>
</symbol><symbol id="icon-8" viewBox="0 0 164 164">
    <style>
        .st0{fill:none;stroke:#fff;stroke-width:2;stroke-miterlimit:10}
    </style>
    <circle class="st0" cx="82" cy="82" r="81"/>
    <path class="st0" d="M60.8 71.3c6.5 0 11.7-5.3 11.7-11.7 0-4 1.4-7.7-1.7-9.8-1.9-1.3-10.1-1.9-12.5-1.9-2.9 0-6.6 2.4-8.7 4.1-2.5 2.1-.5 4-.5 7.6 0 6.5 5.2 11.7 11.7 11.7zm-8.2-12.8c2.2-.4 3.6.3 3.6.3l3.6-1.8s-1.8 2.6-.2 1.8c3.7-1.2 7.8-.7 9.8-.3.1.4.1.9.1 1.4 0 4.8-3.8 8.7-8.6 8.7-4.7 0-8.6-3.9-8.6-8.7.2-.5.2-1 .3-1.4zm0 0"/>
    <path class="st0" d="M118 58c-.1-.7-.1-1.3-.2-2-.5-4.1-4.1-12.5-14.7-12.2C94 44 92 50.8 91.5 55c-.3 1-.5 2.1-.6 3.2-11.8 2.1-10.6 14.1-3.3 14.3-.7-6.3 2.3-10 3.5-11.3 1.1 6.5 6.6 11.5 13.4 11.5 6.4 0 11.8-4.5 13.2-10.5 1.1 2 3 6 2.5 10.3 11.4-.1 5.8-13.1-2.2-14.5zm-13.5 10.8c-5.3 0-9.7-4.3-9.8-9.6 1.9-.7 3.4-4.1 3.4-4.1s1.2.4 1.2 4.2c2 .7 5.5-5.9 5.5-5.9v5.2c2.2.6 9.2-.2 9.2-.2l.2.2v.3c.1 5.5-4.3 9.9-9.7 9.9zm0 0"/>
    <path class="st0" d="M107.3 73.1H96.8L82.7 90 69 73.3H53.5L37.3 91.1l3.4 3.5 11.6-9.9v19.2h2.4v14.6h-1.5v1.8h6.7v-16.4h2.6v16.4h6.7v-1.8h-1.5v-14.6h2.9V85l9.2 9.6 3.8-.9 2.1.5 10.6-12.1.6 4.8-9.8 16.8h11.3v14.6h-1.5v1.7h6.7v-16.3h2.6V120h6.7v-1.7h-1.5v-14.6h8.8l-8.6-16.8.4-5.9 8.3 11 5.4-1.3-13-17.6z"/>
</symbol><symbol id="icon-9" viewBox="0 0 164 164">
    <style>
        .st0{fill:none;stroke:#fff;stroke-width:2;stroke-miterlimit:10}
    </style>
    <circle class="st0" cx="82" cy="82" r="81"/>
    <path class="st0" d="M62.2 94.6h43.7c5 0 9-4 9-9V67v-.1-.1-.1-.1-.1-.1-.1-.2-.1s0-.1-.1-.1l-.1-.1-.1-.1-.1-.1-.1-.1-.1-.1-.1-.1s-.1 0-.1-.1h-.1s-.1 0-.1-.1l-.2-.1h-.1-.1-.1-.1-.1-.1l-55.4-7.6v-7.7-.2-.1-.1-.1-.2-.1s0-.1-.1-.1v-.1s0-.1-.1-.1v-.1-.1s0-.1-.1-.1l-.1-.1-.1-.1h-.1s-.1 0-.1-.1l-.1-.1c-.1 0-.1-.1-.2-.1l-12-5.1c-1.1-.5-2.4 0-2.9 1.2-.5 1.1 0 2.4 1.2 2.9l10.7 4.5v48.2c0 4.6 3.4 8.3 7.8 8.9-.8 1.3-1.3 2.9-1.3 4.6 0 4.9 4 8.9 8.9 8.9s8.9-4 8.9-8.9c0-1.6-.4-3.2-1.2-4.5h19.8c-.8 1.3-1.2 2.9-1.2 4.5 0 4.9 4 8.9 8.9 8.9s8.9-4 8.9-8.9-4-8.9-8.9-8.9H62.2c-2.5 0-4.6-2.1-4.6-4.6v-6c1.3.6 2.9 1.1 4.6 1.1zm10.9 18.1c0 2.5-2 4.5-4.5 4.5s-4.5-2-4.5-4.5 2-4.5 4.5-4.5c2.5.1 4.5 2.1 4.5 4.5zm35.1 0c0 2.5-2 4.5-4.5 4.5s-4.5-2-4.5-4.5 2-4.5 4.5-4.5c2.5.1 4.5 2.1 4.5 4.5zm-2.4-22.5"/>
</symbol><symbol id="icon-facebook" viewBox="0 0 10 19">
    <title>
        facebook
    </title>
    <path d="M9.766.157v2.946H8.014c-.64 0-1.071.134-1.295.402-.223.268-.335.67-.335 1.205v2.11h3.27l-.435 3.303H6.384v8.471H2.97v-8.47H.123V6.82H2.97V4.387c0-1.384.387-2.457 1.161-3.22C4.904.404 5.934.023 7.222.023c1.093 0 1.941.045 2.544.134z" fill-rule="evenodd"/>
</symbol><symbol id="icon-footer__logo" viewBox="0 0 124 218.4">
    <style>
        .st0{fill:#fff}
    </style>
    <path class="st0" d="M62 154.4c-.1 0-.2 0-.2-.1L0 66.1c0-.1 0-.2.1-.3.1-.1.3-.1.3.1L62.2 154c.1.1.1.3-.1.3 0 .1 0 .1-.1.1z"/>
    <path class="st0" d="M62 154.4c-.1 0-.1 0-.2-.1L.1 80.8c-.1-.1-.1-.3 0-.4.1-.1.3-.1.4 0L62.2 154c.1.1.1.3 0 .4H62z"/>
    <path class="st0" d="M62 154.4c-.1 0-.1 0-.2-.1L.1 92.6c-.1-.1-.1-.3 0-.4s.3-.1.4 0L62.2 154c.1.1.1.3 0 .4H62z"/>
    <path class="st0" d="M62 154.4c-.1 0-.1 0-.2-.1L.1 102.6c-.1-.1-.1-.2 0-.4.1-.1.2-.1.4 0L62.2 154c.1.1.1.2 0 .4H62z"/>
    <path class="st0" d="M62 154.4h-.1L.1 111.1c-.1 0-.1-.2-.1-.3s.2-.1.3-.1L62.1 154c.1.1.1.2.1.3 0 .1-.1.1-.2.1z"/>
    <path class="st0" d="M62 154.4h-.1L.1 118.7c-.1 0-.1-.2-.1-.3.1-.1.2-.2.3-.1L62.1 154c.1.1.2.2.1.3 0 .1-.1.1-.2.1z"/>
    <path class="st0" d="M62 154.4h-.1L.1 125.6c-.1 0-.1-.2-.1-.3.1-.1.2-.2.3-.1L62.1 154c.1.1.2.2.1.3 0 .1-.1.1-.2.1z"/>
    <path class="st0" d="M62 154.4s-.1 0 0 0L.2 131.9c-.1 0-.2-.2-.1-.3s.2-.2.3-.1L62.2 154c.1 0 .2.2.1.3-.1.1-.2.1-.3.1z"/>
    <path class="st0" d="M62 154.4L.2 137.9c-.1 0-.2-.2-.2-.3 0-.1.2-.2.3-.2l61.8 16.5c.1 0 .2.2.2.3-.1.2-.2.2-.3.2z"/>
    <path class="st0" d="M62 154.4L.2 143.5c-.1 0-.2-.2-.2-.3 0-.1.2-.2.3-.2L62 153.9c.1 0 .2.2.2.3 0 .1-.1.2-.2.2z"/>
    <path class="st0" d="M62 154.4L.2 149c-.1 0-.2-.1-.2-.3s.1-.2.3-.2l61.8 5.4c.1 0 .2.1.2.3-.1.1-.2.2-.3.2z"/>
    <path class="st0" d="M62 154.4H.3c-.1 0-.3-.1-.3-.3s.1-.3.3-.3H62c.1 0 .3.1.3.3s-.2.3-.3.3z"/>
    <path class="st0" d="M123.8 154.4H62c-.1 0-.3-.1-.3-.3s.1-.3.3-.3h61.8c.1 0 .3.1.3.3s-.2.3-.3.3z"/>
    <path class="st0" d="M62 154.4c-.1 0-.2-.1-.2-.2s.1-.3.2-.3l61.8-5.4c.1 0 .3.1.3.2s-.1.3-.2.3L62 154.4z"/>
    <path class="st0" d="M62 154.4c-.1 0-.2-.1-.2-.2s.1-.3.2-.3l61.8-10.9c.1 0 .3.1.3.2s-.1.3-.2.3L62 154.4z"/>
    <path class="st0" d="M62 154.4c-.1 0-.2-.1-.2-.2s0-.3.2-.3l61.8-16.5c.1 0 .3 0 .3.2 0 .1 0 .3-.2.3L62 154.4z"/>
    <path class="st0" d="M62 154.4c-.1 0-.2-.1-.2-.2s0-.3.1-.3l61.7-22.5c.1 0 .3 0 .3.1s0 .3-.1.3L62 154.4c.1 0 0 0 0 0z"/>
    <path class="st0" d="M62 154.4c-.1 0-.2-.1-.2-.1-.1-.1 0-.3.1-.3l61.8-28.8c.1-.1.3 0 .3.1.1.1 0 .3-.1.3l-61.8 28.8H62z"/>
    <path class="st0" d="M62 154.4c-.1 0-.2 0-.2-.1-.1-.1 0-.3.1-.3l61.8-35.7c.1-.1.3 0 .3.1.1.1 0 .3-.1.3l-61.8 35.7H62z"/>
    <path class="st0" d="M62 154.4c-.1 0-.2 0-.2-.1-.1-.1-.1-.3.1-.3l61.8-43.2c.1-.1.3-.1.3.1.1.1.1.3-.1.3l-61.8 43.2H62z"/>
    <path class="st0" d="M62 154.4c-.1 0-.1 0-.2-.1s-.1-.3 0-.4l61.7-51.8c.1-.1.3-.1.4 0 .1.1.1.3 0 .4l-61.8 51.8c0 .1 0 .1-.1.1z"/>
    <path class="st0" d="M62 154.4c-.1 0-.1 0-.2-.1s-.1-.3 0-.4l61.8-61.8c.1-.1.3-.1.4 0s.1.3 0 .4l-61.8 61.8c-.1.1-.1.1-.2.1z"/>
    <path class="st0" d="M62 154.4c-.1 0-.1 0-.2-.1s-.1-.2 0-.4l61.8-73.6c.1-.1.2-.1.4 0 .1.1.1.2 0 .4l-61.8 73.6c-.1.1-.1.1-.2.1z"/>
    <path class="st0" d="M62 154.4h-.1c-.1-.1-.1-.2-.1-.3l61.7-88.2c.1-.1.2-.1.3-.1.1.1.1.2.1.3l-61.8 88.2c.1.1 0 .1-.1.1z"/>
    <path class="st0" d="M62 154.4h-.1c-.1-.1-.2-.2-.1-.3l61.7-107c.1-.1.2-.2.3-.1.1.1.2.2.1.3l-61.8 107c.1.1 0 .1-.1.1z"/>
    <path class="st0" d="M62 154.4s-.1 0 0 0c-.2-.1-.3-.2-.2-.3l46.2-127c0-.1.2-.2.3-.1.1 0 .2.2.1.3l-46.2 127c0 .1-.1.1-.2.1z"/>
    <path class="st0" d="M62 154.4c-.2 0-.3-.2-.2-.3L97.4 20.9c0-.1.2-.2.3-.2.1 0 .2.2.2.3L62.2 154.2c0 .2-.1.2-.2.2z"/>
    <path class="st0" d="M62 154.4c-.2 0-.3-.2-.2-.3L86.4 14.5c0-.1.1-.2.3-.2.1 0 .2.2.2.3L62.2 154.2c0 .1-.1.2-.2.2z"/>
    <path class="st0" d="M62 154.4c-.2 0-.3-.1-.2-.3L74.6 7.7c0-.1.1-.2.3-.2.1 0 .2.1.2.3L62.2 154.2c0 .1-.1.2-.2.2z"/>
    <path class="st0" d="M62 154.4c-.1 0-.3-.1-.3-.3V.3c.1-.2.2-.3.3-.3.1 0 .3.1.3.3v153.9c0 .1-.2.2-.3.2z"/>
    <path class="st0" d="M62 154.4c-.1 0-.2-.1-.2-.2L37.1 14.6c0-.1.1-.3.2-.3s.3.1.3.2l24.6 139.6c.1.2 0 .3-.2.3z"/>
    <path class="st0" d="M62 154.4c-.1 0-.2-.1-.2-.2L26.1 21.1c0-.1 0-.3.2-.3.1 0 .3 0 .3.2l35.7 133.2s-.1.2-.3.2z"/>
    <path class="st0" d="M62 154.4c-.1 0-.2-.1-.2-.2l-46.2-127c0-.1 0-.3.1-.3s.3 0 .3.1l46.2 127c.1.2 0 .4-.2.4.1 0 0 0 0 0z"/>
    <path class="st0" d="M62 154.4c-.1 0-.2-.1-.2-.1L5.3 33.2c-.1-.1 0-.3.1-.3.1-.1.3 0 .3.1l56.5 121.1c.1.1 0 .3-.1.3H62z"/>
    <path class="st0" d="M62 154.4c-.1 0-.2-.1-.2-.2L48.9 7.7c0-.1.1-.3.2-.3s.3.1.3.2l12.8 146.5c.1.2 0 .3-.2.3z"/>
    <path class="st0" d="M62 154.4c-.1 0-.2 0-.2-.1L0 47.4c0-.2 0-.3.1-.4.1-.1.3 0 .3.1l61.8 107c.1.1 0 .3-.1.3H62z"/>
    <path class="st0" d="M62 154.4h-.1c-.1-.1-.2-.2-.1-.3L118.2 33c.1-.1.2-.2.3-.1.1.1.2.2.1.3L62.2 154.3c0 .1-.1.1-.2.1z"/>
    <path class="st0" d="M5.7 169.8H0v-2.1h14v2.1H8.2v16.8H5.7v-16.8z"/>
    <path class="st0" d="M38.7 177.7h-7.3v6.8h8.2v2H29v-18.9h10.2v2h-7.8v6h7.3v2.1z"/>
    <path class="st0" d="M56.4 183.6c1.1.7 2.7 1.2 4.4 1.2 2.5 0 3.9-1.3 3.9-3.2 0-1.8-1-2.8-3.6-3.8-3.1-1.1-5-2.7-5-5.4 0-2.9 2.4-5.1 6.1-5.1 1.9 0 3.3.4 4.2.9l-.7 2c-.6-.3-1.9-.9-3.6-.9-2.6 0-3.6 1.5-3.6 2.8 0 1.8 1.1 2.6 3.8 3.6 3.2 1.2 4.8 2.8 4.8 5.5 0 2.9-2.2 5.4-6.6 5.4-1.8 0-3.8-.5-4.8-1.2l.7-1.8z"/>
    <path class="st0" d="M83.6 167.7H86v16.8h8.1v2H83.6v-18.8z"/>
    <path class="st0" d="M112.7 180.6l-2 5.9h-2.5l6.4-18.9h2.9l6.4 18.9h-2.6l-2-5.9h-6.6zm6.2-1.9l-1.8-5.4c-.4-1.2-.7-2.4-1-3.4h-.1c-.3 1.1-.6 2.3-1 3.4l-1.8 5.5h5.7z"/>
    <path class="st0" d="M3.5 199.2v7.9h9.1v-7.9h2.5v18.9h-2.5v-8.9H3.5v8.9H1.1v-18.9h2.4z"/>
    <path class="st0" d="M44 208.5c0 6.5-3.9 9.9-8.8 9.9-5 0-8.5-3.9-8.5-9.6 0-6 3.7-9.9 8.8-9.9 5.1 0 8.5 4 8.5 9.6zm-14.7.3c0 4 2.2 7.6 6 7.6 3.9 0 6.1-3.6 6.1-7.8 0-3.8-2-7.7-6-7.7-4.1 0-6.1 3.7-6.1 7.9z"/>
    <path class="st0" d="M58 199.2v11.2c0 4.2 1.9 6 4.4 6 2.8 0 4.6-1.8 4.6-6v-11.2h2.5v11c0 5.8-3.1 8.2-7.1 8.2-3.9 0-6.8-2.2-6.8-8.1v-11.1H58z"/>
    <path class="st0" d="M84.7 215.1c1.1.7 2.7 1.2 4.4 1.2 2.5 0 3.9-1.3 3.9-3.2 0-1.8-1-2.8-3.6-3.8-3.1-1.1-5-2.7-5-5.4 0-2.9 2.4-5.1 6.1-5.1 1.9 0 3.3.4 4.2.9l-.7 2c-.6-.3-1.9-.9-3.6-.9-2.6 0-3.6 1.5-3.6 2.8 0 1.8 1.1 2.6 3.8 3.6 3.2 1.2 4.8 2.8 4.8 5.5 0 2.9-2.2 5.4-6.6 5.4-1.8 0-3.8-.5-4.8-1.2l.7-1.8z"/>
    <path class="st0" d="M121.5 209.2h-7.3v6.8h8.2v2h-10.6v-18.9H122v2h-7.8v6h7.3v2.1z"/>
</symbol></svg>